<svg width="357" height="357" viewBox="0 0 357 357" fill="none" xmlns="http://www.w3.org/2000/svg">
<g style="mix-blend-mode:multiply" opacity="0.25">
<path d="M177.481 352.762C241.533 352.762 293.457 338.14 293.457 320.102C293.457 302.065 241.533 287.443 177.481 287.443C113.43 287.443 61.5059 302.065 61.5059 320.102C61.5059 338.14 113.43 352.762 177.481 352.762Z" fill="#C7C7C7"/>
</g>
<path d="M279.562 316.503C278.374 316.503 277.41 315.553 277.41 314.382C277.41 309.764 270.855 306.515 265.985 304.038C263.189 302.608 260.082 301.266 260.082 298.213L260.082 255.138L262.194 212.871C262.194 203.502 255.755 195.371 246.531 193.095L240.891 191.703C237.267 190.811 233.497 191.598 230.546 193.863C227.594 196.129 225.909 199.547 225.909 203.233V283.009C225.909 285.322 225.831 289.076 224.088 290.612C222.344 292.148 219.568 293.827 217.24 293.568C205.025 292.195 191.543 291.063 178.11 291.063C164.678 291.063 149.317 291.773 137.101 293.146C133.374 293.561 128.96 287.859 128.96 284.756L130.292 203.233C130.292 199.547 128.597 196.139 125.655 193.863C122.704 191.598 118.934 190.811 115.311 191.703L109.671 193.095C100.446 195.371 94.0072 203.502 94.0072 212.871V296.103C94.0072 299.146 92.2635 301.93 89.4679 303.361C84.5974 305.838 78.7918 309.764 78.7918 314.382C78.7918 315.553 77.8275 316.503 76.6391 316.503C75.4507 316.503 74.4863 315.553 74.4863 314.382C74.4863 308.967 75.7157 303.325 84.3461 298.938C85.7099 298.238 89.7114 297.562 89.7114 296.103V212.871C89.7114 201.553 97.4944 191.732 108.628 188.987L114.268 187.595C119.178 186.385 124.301 187.451 128.295 190.523C132.289 193.595 134.588 198.231 134.588 203.223V282.999C134.588 284.122 135.055 285.15 135.903 285.889C136.75 286.638 137.851 286.974 138.981 286.849C151.352 285.457 164.522 284.756 178.11 284.756C191.699 284.756 204.869 285.457 217.24 286.849C218.37 286.974 219.461 286.638 220.308 285.889C221.156 285.15 221.623 284.122 221.623 282.999V203.223C221.623 198.222 223.912 193.595 227.916 190.523C231.919 187.451 237.033 186.375 241.943 187.595L247.583 188.987C258.726 191.732 266.5 201.553 266.5 212.871V296.103C266.5 297.562 267.347 298.897 268.721 299.598C277.351 303.994 281.725 308.967 281.725 314.382C281.725 315.553 280.76 316.503 279.572 316.503H279.562Z" fill="#C8C8C8"/>
<path d="M264.088 305.241L264.093 305.243L268.721 299.598L269.68 297.717C269.68 297.717 269.68 297.716 269.679 297.716C268.964 297.351 268.611 296.714 268.611 296.103V212.871C268.611 200.563 260.157 189.911 248.089 186.937C248.089 186.937 248.088 186.937 248.088 186.936L242.452 185.545C242.451 185.545 242.451 185.545 242.451 185.545C236.916 184.171 231.142 185.386 226.63 188.847C222.11 192.316 219.512 197.56 219.512 203.223V282.999C219.512 283.511 219.309 283.959 218.92 284.298L218.91 284.306C218.52 284.651 218.025 284.811 217.472 284.75C205.017 283.349 191.769 282.644 178.11 282.644C164.451 282.644 151.203 283.349 138.747 284.75C138.191 284.811 137.688 284.648 137.301 284.306L137.291 284.298C136.902 283.959 136.699 283.511 136.699 282.999V203.223C136.699 197.568 134.09 192.316 129.583 188.849C125.076 185.383 119.292 184.182 113.763 185.544L113.762 185.545L108.123 186.937C108.123 186.937 108.123 186.937 108.122 186.937C96.0644 189.91 87.5999 200.562 87.5999 212.871V295.813C87.571 295.851 87.5324 295.899 87.4816 295.958C87.22 296.257 86.8055 296.63 86.2776 297.036C85.2291 297.842 84.0122 298.57 83.4344 298.867C78.9715 301.136 76.1155 303.403 74.4264 306.04C72.7082 308.723 72.3748 311.514 72.3748 314.382C72.3748 315.442 72.7503 316.85 73.1626 318.003C73.5754 319.157 74.1928 320.528 74.9346 321.407C75.133 321.642 75.4056 321.922 75.7575 322.15C76.1051 322.376 76.6781 322.645 77.4035 322.59C79.0317 322.466 79.6205 321.015 79.7931 320.485C80.0276 319.766 80.1355 318.853 80.1744 317.812C80.2131 316.776 80.187 315.481 80.087 313.889C80.2842 312.231 80.7124 311.104 81.2253 310.294C81.7516 309.463 82.4407 308.85 83.3062 308.326C84.2034 307.783 85.2434 307.361 86.4876 306.888C86.619 306.838 86.7529 306.787 86.889 306.736C87.988 306.32 89.2301 305.851 90.425 305.243L90.4297 305.241C90.9387 304.98 91.4754 304.743 92.0753 304.479C92.2196 304.415 92.3676 304.35 92.5197 304.282C93.2632 303.952 94.0967 303.57 94.8594 303.107C96.393 302.178 98.0766 300.643 98.0766 298.033L98.0766 212.871C98.0766 204.145 102.179 197.118 110.176 195.146L110.177 195.145L115.816 193.754C115.816 193.754 115.816 193.754 115.816 193.754C115.816 193.753 115.816 193.753 115.817 193.753C118.818 193.014 121.927 193.664 124.367 195.536C126.799 197.419 128.181 200.213 128.181 203.233V283.009C128.181 285.801 129.647 288.68 131.627 290.746C133.607 292.812 136.507 294.476 139.692 294.122L139.694 294.121C151.824 292.758 164.739 292.071 178.101 292.071C191.462 292.071 204.378 292.758 216.507 294.121L216.509 294.122C218.254 294.316 219.862 293.768 221.162 293.078C222.471 292.383 223.636 291.453 224.558 290.641C226.751 288.709 228.021 285.937 228.021 283.009V203.233C228.021 200.206 229.398 197.406 231.832 195.538C234.272 193.665 237.382 193.014 240.385 193.753C240.385 193.754 240.385 193.754 240.386 193.754L246.025 195.145L246.025 195.146C254.312 197.189 260.064 204.468 260.083 212.83L258.401 254.402C258.4 254.43 258.399 254.459 258.399 254.487V296.103C258.399 299.983 260.618 303.465 264.088 305.241ZM87.6765 295.698C87.6767 295.698 87.6748 295.702 87.6701 295.711C87.6739 295.703 87.6762 295.698 87.6765 295.698ZM75.7691 319.201C75.769 319.201 75.7704 319.197 75.7734 319.19C75.7707 319.198 75.7692 319.201 75.7691 319.201ZM78.1826 318.706C78.1826 318.706 78.1809 318.705 78.1777 318.701C78.181 318.704 78.1826 318.706 78.1826 318.706Z" stroke="#592641" stroke-width="4.22303" stroke-linecap="round" stroke-linejoin="round"/>
<path d="M216.174 308.168C216.174 302.648 199.137 298.165 178.126 298.165C157.115 298.165 140.068 302.639 140.068 308.168V318.171C140.068 323.691 157.105 328.175 178.126 328.175C199.147 328.175 216.174 323.701 216.174 318.171V308.168Z" fill="#C8E2C9"/>
<g style="mix-blend-mode:multiply" opacity="0.5">
<path d="M178.051 325.393C157.206 325.393 140.312 320.777 140.312 315.071V317.875C140.312 323.57 157.206 328.196 178.051 328.196C198.896 328.196 215.78 323.58 215.78 317.875V315.071C215.78 320.767 198.886 325.393 178.051 325.393Z" fill="#82B45A"/>
</g>
<g style="mix-blend-mode:overlay" opacity="0.5">
<path d="M216.174 308.168C216.174 313.688 199.137 319.784 178.126 319.784C157.115 319.784 140.068 313.688 140.068 308.168C140.068 302.648 157.105 298.165 178.116 298.165C199.128 298.165 216.165 302.639 216.165 308.168H216.174Z" fill="#FAFAFA"/>
</g>
<path d="M178.685 315.948C195.961 315.948 209.966 312.734 209.966 308.769C209.966 304.804 195.961 301.59 178.685 301.59C161.409 301.59 147.404 304.804 147.404 308.769C147.404 312.734 161.409 315.948 178.685 315.948Z" fill="#FFEFA1"/>
<path d="M161.215 312.962C157.874 313.183 149.575 311.695 149.643 307.365C149.721 306.655 150.734 306.424 151.133 307.01L151.387 307.365C151.591 307.653 152.283 308.085 153.111 308.431C155.819 309.544 158.692 310.12 161.507 311.282C162.384 311.618 162.15 312.943 161.215 312.972V312.962Z" fill="#FAFAFA"/>
<g style="mix-blend-mode:multiply" opacity="0.5">
<path d="M178.121 310.749C185.744 310.749 191.924 309.227 191.924 307.351C191.924 305.474 185.744 303.952 178.121 303.952C170.498 303.952 164.318 305.474 164.318 307.351C164.318 309.227 170.498 310.749 178.121 310.749Z" fill="#FFEFA1"/>
</g>
<path d="M216.826 308.539C216.826 302.946 199.367 298.404 177.837 298.404C156.306 298.404 138.838 302.936 138.838 308.539V318.674C138.838 324.267 156.296 328.81 177.837 328.81C199.377 328.81 216.826 324.277 216.826 318.674V308.539Z" stroke="#592641" stroke-width="2.53382" stroke-linecap="round" stroke-linejoin="round"/>
<path d="M216.898 309.605C216.898 315.222 199.411 321.636 178.481 321.636C157.551 321.636 139.211 315.222 139.211 309.605" stroke="#592641" stroke-width="2.53382" stroke-linecap="round" stroke-linejoin="round"/>
<path d="M178.836 316.817C196.192 316.817 210.261 313.451 210.261 309.3C210.261 305.149 196.192 302.433 178.836 302.433C161.481 302.433 147.412 305.149 147.412 309.3C147.412 313.451 161.481 316.817 178.836 316.817Z" stroke="#592641" stroke-width="2.53382" stroke-linecap="round" stroke-linejoin="round"/>
<g style="mix-blend-mode:overlay" opacity="0.5">
<path d="M190.193 298.335C199.201 291.766 201.1 279.244 194.434 270.366C187.769 261.488 175.063 259.617 166.055 266.186C157.047 272.755 155.148 285.277 161.813 294.155C168.479 303.033 181.185 304.904 190.193 298.335Z" fill="#FAFAFA"/>
</g>
<path d="M178.125 307.277V300.605" stroke="#FAFAFA" stroke-width="1.536" stroke-linecap="round" stroke-linejoin="round"/>
<path d="M184.464 291.771C184.464 300.056 181.629 302.273 178.123 302.273C174.616 302.273 171.781 300.056 171.781 291.771C171.781 283.486 175.59 272.273 178.123 272.273C180.655 272.273 184.464 283.486 184.464 291.771Z" fill="#FA9646"/>
<path d="M181.932 295.973C181.932 300.946 180.227 302.271 178.123 302.271C176.019 302.271 174.314 300.937 174.314 295.973C174.314 291.01 176.594 284.271 178.123 284.271C179.652 284.271 181.932 291.001 181.932 295.973Z" fill="#F5DC50"/>
<path d="M184.464 291.776C184.464 300.061 181.629 302.279 178.123 302.279C174.616 302.279 171.781 300.061 171.781 291.776" stroke="#592641" stroke-width="1.152" stroke-linecap="round" stroke-linejoin="round"/>
<path d="M272.528 318.472C272.826 318.486 273.125 318.423 273.408 318.288C273.69 318.152 273.951 317.946 274.175 317.682C274.398 317.418 274.581 317.1 274.712 316.747C274.842 316.394 274.919 316.013 274.937 315.625C274.955 315.237 274.914 314.85 274.817 314.487C274.719 314.123 274.567 313.79 274.369 313.506C274.17 313.222 273.93 312.993 273.661 312.832C273.392 312.67 273.1 312.58 272.802 312.566L272.528 318.472Z" fill="#E3E0DE"/>
<path d="M57.3091 128.459C57.3091 128.459 49.5864 146.73 45.6842 172.042C43.1779 188.272 48.0424 215.061 60.6555 227.468C60.7945 227.616 61.5008 228.301 61.5008 228.301C77.573 244.049 123.462 255.416 177.607 255.416C231.752 255.416 277.641 244.049 293.713 228.301C293.713 228.301 294.42 227.605 294.547 227.468C333.57 192.343 300.07 106.982 264.024 75.2005C263.839 75.0179 263.155 74.4359 263.155 74.4359C249.909 63.0584 216.606 54.9902 177.596 54.9902C138.585 54.9902 105.282 63.0584 92.0356 74.4359C92.0356 74.4359 91.364 75.0293 91.1671 75.2119C77.7467 87.046 65.5999 106.743 57.2975 128.459H57.3091Z" fill="#DCF0F5"/>
<g style="mix-blend-mode:multiply" opacity="0.5">
<path d="M290.262 220.468C290.111 220.628 289.532 221.187 289.532 221.187C274.19 236.102 228.312 246.521 177.965 246.521C127.618 246.521 81.7407 236.102 66.3981 221.198C66.3981 221.198 65.8191 220.639 65.5759 220.388C61.4768 216.382 58.3041 211.167 56.0924 204.845C55.3977 202.837 55.7219 200.611 56.9493 198.877C60.3999 194.027 65.0201 184.738 66.9539 168.327C69.1887 149.35 66.2244 135.085 64.4296 128.683C64.0243 127.256 64.1169 125.75 64.6727 124.369C70.1034 111.132 76.889 99.172 84.2766 89.6431C91.479 108.233 135.921 118.207 177.965 118.207C220.01 118.207 264.509 108.222 271.665 89.6089C289.382 112.341 302.594 147.843 303.428 177.799C303.96 196.8 299.433 211.521 290.262 220.491V220.468Z" fill="#DCF0F5"/>
</g>
<path d="M289.911 220.62C289.761 220.792 289.194 221.328 289.194 221.328C273.874 236.163 228.054 246.525 177.788 246.525C145.893 246.525 92.4584 246.586 68.6115 220.734C55.41 207.943 50.8007 184.521 52.823 167.545C54.3288 154.835 60.2892 136.806 65.1203 125.146C69.4901 114.553 78.7802 102.11 89.4957 97.8636C104.074 111.592 141.823 118.873 177.788 118.873C213.754 118.873 251.526 111.592 266.104 97.8408C275.009 101.367 281.192 105.43 283.844 109.835C284.018 110.166 284.423 110.919 284.423 110.942C295.215 131.528 302.463 156.315 303.077 178.157C303.61 197.055 299.082 211.696 289.923 220.632L289.911 220.62Z" fill="#E5CFBA"/>
<g style="mix-blend-mode:overlay" opacity="0.5">
<path d="M177.954 113.977C227.919 113.977 268.423 100.672 268.423 84.2603C268.423 67.8484 227.919 54.5439 177.954 54.5439C127.989 54.5439 87.4844 67.8484 87.4844 84.2603C87.4844 100.672 127.989 113.977 177.954 113.977Z" fill="#FAFAFA"/>
</g>
<path d="M177.958 110.272C224.949 110.272 263.043 98.2959 263.043 83.5227C263.043 68.7495 224.949 56.7734 177.958 56.7734C130.967 56.7734 92.873 68.7495 92.873 83.5227C92.873 98.2959 130.967 110.272 177.958 110.272Z" fill="#DCF0F5"/>
<g style="mix-blend-mode:multiply" opacity="0.5">
<path d="M177.984 110.272C224.975 110.272 263.069 98.2959 263.069 83.5227C263.069 68.7495 224.975 56.7734 177.984 56.7734C130.992 56.7734 92.8984 68.7495 92.8984 83.5227C92.8984 98.2959 130.992 110.272 177.984 110.272Z" fill="#DCF0F5"/>
</g>
<path d="M177.992 110.277C213.506 110.277 243.914 103.441 256.674 93.7185C237.024 87.9099 209.06 84.2695 178.004 84.2695C146.948 84.2695 118.972 87.9099 99.3223 93.7185C112.071 103.43 142.49 110.277 178.004 110.277H177.992Z" fill="#DAC4B0"/>
<g style="mix-blend-mode:overlay" opacity="0.25">
<path d="M177.988 86.647C147.997 86.647 121.133 90.333 102.965 96.1416C105.35 97.5452 108.118 98.869 111.233 100.101C126.992 92.7523 154.864 87.6056 187.274 86.7725C184.217 86.6926 181.114 86.647 177.988 86.647Z" fill="#E5CFBA"/>
<path d="M177.985 88.251C176.028 88.251 174.082 88.2738 172.16 88.308C202.66 88.833 229.189 93.3863 244.798 100.074C246.72 99.309 248.503 98.5102 250.147 97.6885C233.044 91.9256 207.072 88.251 177.985 88.251Z" fill="#E5CFBA"/>
<path d="M120.959 102.815C133.731 99.0261 151.934 96.6525 172.163 96.6525C195.785 96.6525 216.662 99.8934 229.33 104.835C231.588 104.298 233.765 103.728 235.838 103.123C223.251 98.0219 202.038 94.6782 177.999 94.6782C153.96 94.6782 133.65 97.8963 120.971 102.815H120.959Z" fill="#E5CFBA"/>
<path d="M124.383 104.289C124.742 104.38 125.101 104.471 125.46 104.563C127.058 103.638 128.922 102.76 131.053 101.938C128.598 102.668 126.374 103.456 124.383 104.289Z" fill="#E5CFBA"/>
</g>
<g style="mix-blend-mode:multiply" opacity="0.25">
<path d="M236.168 183.56C236.05 183.694 235.607 184.113 235.607 184.113C223.635 195.76 187.828 203.911 148.546 203.911C109.264 203.911 73.4568 195.769 61.4849 184.113C61.4849 184.113 61.0324 183.667 60.8514 183.471C57.639 180.341 55.1686 176.274 53.4493 171.333C52.9064 169.764 53.1597 168.025 54.1189 166.669C56.8065 162.879 60.408 155.602 61.9283 142.777C63.6747 127.956 61.3672 116.826 59.9556 111.814C64.1397 100.209 74.4895 91.9706 79.5468 87.1106C90.9396 97.8926 120.44 103.609 148.546 103.609C176.652 103.609 206.17 97.8926 217.563 87.0928C224.522 89.8663 229.354 93.059 231.426 96.5192C231.562 96.7778 231.879 97.3754 231.879 97.3843C240.312 113.562 245.977 133.03 246.457 150.179C246.873 165.028 243.335 176.532 236.177 183.542L236.168 183.56Z" fill="#FAF0E7"/>
</g>
<g style="mix-blend-mode:multiply" opacity="0.25">
<path d="M233.992 108.952C233.377 107.195 232.725 105.456 232.047 103.726C226.129 114.954 191.127 123.578 148.822 123.578C106.518 123.578 71.5162 114.954 65.5981 103.726C64.9104 105.456 64.2679 107.204 63.6526 108.952L63.4173 109.603C63.1097 110.54 63.7702 111.431 63.9512 112.341C67.9147 125.798 68.2586 140.112 65.381 153.846C64.2227 159.108 62.3405 164.708 59.2729 169.461C59.2457 169.497 59.2186 169.542 59.1914 169.586C59.2095 169.649 59.2367 169.702 59.2367 169.702C61.1008 174.58 64.2498 178.87 68.6839 181.733C71.4257 183.57 74.5748 185.006 77.6425 186.272C86.1033 189.527 94.899 191.596 104.002 193.175C133.358 198.008 163.79 198.017 193.154 193.255C205.732 190.936 224.011 187.289 232.988 178.362C247.729 162.024 240.697 128.01 233.983 108.952H233.992Z" fill="#FDF9F5"/>
</g>
<path d="M265.623 98.4232C251.172 112.163 213.736 118.314 178.026 118.314C142.315 118.314 103.64 111.547 89.1655 97.8184C80.3883 101.322 75.5598 104.859 72.9197 109.242C72.746 109.584 72.5607 109.915 72.387 110.257C71.7849 111.535 71.4375 112.825 71.4375 114.149C71.4375 130.479 119.179 143.717 178.06 143.717C236.941 143.717 284.683 130.479 284.683 114.149C284.683 112.836 284.347 111.547 283.745 110.28C283.595 109.995 283.456 109.698 283.305 109.413C280.711 104.962 274.54 101.995 265.635 98.446L265.623 98.4232Z" fill="#E5CFBA"/>
<g style="mix-blend-mode:overlay" opacity="0.25">
<path d="M78.9061 113.994C78.9061 129.091 123.267 141.336 177.991 141.336C181.129 141.336 184.22 141.291 187.277 141.211C136.907 139.921 97.4794 128.224 97.4794 113.994C97.4794 110.969 99.2742 108.059 102.563 105.343C98.95 103.689 95.7425 101.874 93.0329 99.9229C84.0589 104.031 78.8945 108.847 78.8945 114.005L78.9061 113.994Z" fill="#FAFAFA"/>
<path d="M259.59 113.998C259.59 127.669 220.95 138.841 172.166 139.674C174.1 139.709 176.034 139.731 177.99 139.731C229.495 139.731 271.251 128.205 271.251 113.998C271.251 109.581 267.209 105.416 260.088 101.787C258.189 102.963 256.105 104.069 253.858 105.119C257.552 107.892 259.59 110.882 259.59 114.009V113.998Z" fill="#FAFAFA"/>
<path d="M242.108 115.971C242.108 120.136 237.314 123.982 229.197 127.143C240.823 123.697 247.944 119.075 247.944 113.997C247.944 112.125 246.96 110.311 245.154 108.599C243.243 109.261 241.275 109.889 239.225 110.482C241.089 112.228 242.108 114.065 242.108 115.971Z" fill="#FAFAFA"/>
<path d="M177.994 131.68C199.578 131.68 218.649 128.736 230.275 124.228C218.568 127.697 201.882 129.877 183.344 129.877C147.934 129.877 119.229 121.957 119.229 112.189C119.229 111.869 119.275 111.538 119.333 111.219C118.013 110.865 116.727 110.488 115.454 110.112C114.435 111.367 113.879 112.657 113.879 113.992C113.879 123.76 142.584 131.68 177.994 131.68Z" fill="#FAFAFA"/>
</g>
<g style="mix-blend-mode:multiply" opacity="0.25">
<path d="M177.994 237.294C234.188 237.294 279.742 225.706 279.742 211.412C279.742 197.118 234.188 185.53 177.994 185.53C121.8 185.53 76.2461 197.118 76.2461 211.412C76.2461 225.706 121.8 237.294 177.994 237.294Z" fill="#A55F50"/>
</g>
<path d="M289.02 221.225C288.87 221.384 288.291 221.932 288.291 221.932C273.029 236.733 227.744 244.83 177.686 244.83C145.131 244.83 92.827 242.501 67.8675 218.907C59.584 210.813 52.1756 182.815 54.9225 167.122C57.8309 142.475 73.089 110.984 88.0386 91.719C95.1946 110.172 135.559 119.694 177.361 119.694C219.162 119.694 263.407 109.777 270.516 91.3013C288.129 113.874 301.26 149.102 302.093 178.841C302.626 197.693 298.122 212.312 289.009 221.213L289.02 221.225Z" stroke="#592641" stroke-width="5.02005" stroke-linecap="round" stroke-linejoin="round"/>
<path d="M178.195 110.292C222.081 110.292 257.658 99.729 257.658 86.6982C257.658 73.6675 222.081 63.104 178.195 63.104C134.309 63.104 98.7324 73.6675 98.7324 86.6982C98.7324 99.729 134.309 110.292 178.195 110.292Z" stroke="#592641" stroke-width="5.02005" stroke-linecap="round" stroke-linejoin="round"/>
<path d="M252.466 93.2745C233.569 87.6942 206.647 84.2021 176.761 84.2021C146.874 84.2021 119.964 87.6942 101.055 93.2859" stroke="#592641" stroke-width="3.42354" stroke-linecap="round" stroke-linejoin="round"/>
<path d="M89.8081 99.6254C83.2566 102.298 74.2812 108.869 74.2812 117.052C74.2812 133.702 119.312 145.432 177.961 145.432C236.61 145.432 284.144 131.942 284.144 115.292C284.144 113.951 283.807 112.633 283.215 111.351C283.064 111.059 282.925 110.756 282.774 110.465C280.196 105.929 274.9 102.863 266.027 99.248" stroke="#592641" stroke-width="5.02005" stroke-linecap="round" stroke-linejoin="round"/>
<path d="M62.4104 227.334C62.4104 227.334 61.704 226.638 61.5651 226.49C23.1115 188.663 56.9669 104.808 92.2388 73.72C112.043 54.2028 153.564 51.5591 179.215 51.5591C218.388 51.5591 251.64 61.5322 264.945 72.944C264.945 72.944 265.628 73.526 265.813 73.7086C302.011 105.593 329.072 194.411 296.464 226.501L295.619 227.334C279.477 243.128 233.391 254.54 179.015 254.54C124.638 254.54 78.552 243.14 62.4104 227.334Z" stroke="#592641" stroke-width="5.02005" stroke-linecap="round" stroke-linejoin="round"/>
<g style="mix-blend-mode:overlay" opacity="0.25">
<path d="M107.888 220.497C97.1542 208.047 96.8647 189.582 97.1889 177.999C97.71 159.296 103.697 137.316 112.972 118.179C99.9915 119.648 89.7719 115.824 84.6253 104.005C80.8157 110.088 76.4983 113.248 73.3602 120.438C66.2987 134.561 58.6066 149.068 56.8835 162.415C54.9013 177.782 59.6239 210.551 73.3615 219.692C86.3999 228.353 111.698 232.308 132.506 235.127C121.865 231.623 113.377 226.876 107.888 220.497Z" fill="#FAFAFA"/>
</g>
<path d="M86.609 177.713C85.3006 158.427 90.5344 138.65 99.7748 121.715C100.979 119.627 104.256 120.974 103.584 123.29C99.7169 136.345 95.5483 150.724 93.0819 164.019C92.2019 168.595 91.4608 173.194 90.7429 177.85C90.3723 180.212 86.829 180.098 86.609 177.724V177.713Z" fill="#FAFAFA"/>
<path d="M275.838 191.487C301.845 179.881 321.171 155.426 326.833 127.935C326.833 127.935 328.675 124.66 327.505 119.867C327.088 118.189 326.092 116.443 324.541 115.131C322.989 113.819 320.963 112.94 318.566 112.837C315.729 112.723 314.351 113.898 313.726 117.105C313.54 118.087 312.556 118.897 311.63 118.486C310.808 118.121 310.923 115.793 308.897 115.325C307.924 115.097 306.94 115.485 306.164 116.238C305.377 117.002 304.809 118.109 304.809 119.456C304.809 122.56 306.187 124.135 306.187 124.135C303.385 143.364 292.003 161.189 275.838 172.247V191.51V191.487Z" fill="#F2DAC4"/>
<g style="mix-blend-mode:multiply" opacity="0.25">
<path d="M309.474 124.107C309.474 124.107 308.096 122.533 308.096 119.429C308.096 118.071 308.664 116.964 309.451 116.21C309.602 116.062 309.764 115.948 309.926 115.834C310.91 116.69 310.991 118.173 311.639 118.459C312.554 118.869 313.538 118.059 313.735 117.078C314.361 113.871 315.739 112.696 318.576 112.81C320.972 112.912 322.999 113.791 324.55 115.104C326.091 116.416 327.098 118.162 327.515 119.839C328.696 124.632 326.843 127.908 326.843 127.908C321.169 155.41 301.855 179.865 275.848 191.46V172.197C292.012 161.139 306.672 143.313 309.474 124.085V124.107Z" fill="#E7C8A9"/>
</g>
<path d="M309.783 123.93C306.749 143.661 293.122 161.824 276.576 173.007C277.857 173.006 275.165 173.527 274.759 172.934C274.354 172.352 274.505 171.542 275.084 171.131C290.878 160.153 301.867 142.613 304.461 123.852C304.796 121.626 310.084 121.671 309.783 123.93Z" fill="#592641"/>
<path d="M325.721 127.863C327.814 123.737 328.224 118.24 324.528 115.114C322.976 113.801 320.95 112.923 318.553 112.82C315.716 112.706 314.338 113.881 313.713 117.088C312.937 121.199 309.938 115.551 308.884 115.308C306.533 114.756 304.797 117.435 304.797 119.439C304.797 122.543 307.384 123.847 307.384 123.847" stroke="#592641" stroke-width="5.02005" stroke-linecap="round" stroke-linejoin="round"/>
<path d="M274.389 189.525C299.863 178.033 314.009 153.967 323.177 127.362C323.29 126.832 323.687 126.358 324.223 125.856C325.882 125.382 328.587 126.681 328.271 128.365C320.884 155.099 302.855 180.995 276.373 192.658C274.032 193.632 275.289 190.288 274.389 189.525Z" fill="#592641"/>
<path d="M272.701 168.536C273.975 168.103 275.307 168.422 276.268 169.289L276.997 169.94C277.819 170.67 278.102 172.197 277.361 173.007C276.249 174.297 273.744 173.215 273.662 171.56C273.662 171.401 273.651 171.252 273.489 171.161C273.454 171.115 273.304 171.104 273.385 171.058C271.706 171.48 271.022 169.027 272.69 168.548L272.701 168.536Z" fill="#592641"/>
<path d="M313.089 117.405C313.987 119.645 315.826 121.886 315.464 124.674C315.387 125.39 314.732 125.902 314.007 125.826C313.316 125.752 312.804 125.154 312.831 124.481C312.827 123.622 312.443 122.713 311.863 121.789C311.121 120.544 310.305 119.82 309.705 118.231C308.879 115.802 312.654 114.866 313.09 117.393L313.089 117.405Z" fill="#592641"/>
<path d="M321.522 89.668C325.957 79.9077 303.734 60.2956 271.869 45.8639C240.004 31.4323 210.576 27.6593 206.141 37.4196C205.687 38.4228 203.916 42.3094 203.463 43.3127C199.028 53.073 219.956 74.4914 251.821 88.9231C283.684 103.347 314.779 108.375 319.214 98.6148C319.668 97.6116 321.068 90.6712 321.522 89.668Z" fill="#DCF0F5"/>
<g style="mix-blend-mode:multiply" opacity="0.75">
<path d="M271.882 45.8703C240.013 31.436 210.581 27.6623 206.145 37.4244C205.692 38.4278 203.921 42.3151 203.467 43.3185C202.905 44.5529 202.775 45.9538 203.033 47.4702C210.502 59.6844 229.234 74.1547 253.352 85.0783C279.001 96.6959 303.646 101.077 317.414 97.5546C318.025 96.9705 318.528 96.313 318.863 95.5762C319.317 94.5729 321.088 90.6855 321.541 89.6821C325.977 79.9201 303.751 60.3045 271.882 45.8703Z" fill="#DCF0F5"/>
</g>
<path d="M329.324 88.4555C323.406 101.477 290.103 99.1249 254.944 83.2022C219.785 67.2796 196.078 43.8196 201.997 30.7979C207.915 17.7761 242.108 18.1671 277.276 34.0883C312.435 50.0109 335.252 75.4404 329.332 88.454L329.324 88.4555Z" fill="#DCF0F5"/>
<g style="mix-blend-mode:multiply" opacity="0.25">
<path d="M293.421 90.9503C268.486 85.9968 243.913 74.877 223.762 59.4054C216.931 53.9029 201.865 41.2766 206.08 32.3574C210.401 23.2331 229.677 24.7102 238.94 25.6901C251.746 27.1591 264.487 30.5494 276.424 35.953C288.353 41.3582 299.3 48.6907 308.848 57.3334C315.671 63.6318 329.5 77.1331 325.465 86.4085C321.541 95.4269 302.098 92.4675 293.428 90.9407L293.421 90.9503Z" fill="#DCF0F5"/>
</g>
<path d="M329.317 88.5444C323.415 101.572 290.127 99.1853 254.97 83.2151C219.813 67.2449 196.094 43.7418 201.997 30.7145C207.899 17.6872 242.074 18.1114 277.24 34.0801C312.397 50.0503 335.229 75.5238 329.325 88.5429L329.317 88.5444Z" stroke="#592641" stroke-width="5.02005" stroke-linecap="round" stroke-linejoin="round"/>
<path d="M202.533 46.4768C198.109 56.2451 220.626 75.8525 252.498 90.3328C284.368 104.805 313.854 108.93 318.278 99.1615" stroke="#592641" stroke-width="5.02005" stroke-linecap="round" stroke-linejoin="round"/>
<g style="mix-blend-mode:overlay" opacity="0.25">
<path d="M236.34 54.8016C228.175 45.9703 226.421 39.8661 228.094 38.001C229.585 36.3378 234.004 33.7209 246.09 34.1265C247.64 34.1827 249.234 34.29 250.87 34.4403C242.92 32.3302 235.239 31.083 228.408 30.8462C216.33 30.4392 212.822 33.6334 212.005 35.4442C211.181 37.2565 211.36 41.4523 219.547 49.5622C228.636 58.5549 242.895 67.8158 258.667 74.9538C264.043 77.3876 269.488 79.5218 274.835 81.3195C259.097 74.1837 245.115 64.29 236.338 54.7935L236.34 54.8016Z" fill="#FAFAFA"/>
</g>
<path d="M217.782 37.2526C218.977 38.739 221.223 41.1814 222.567 42.6491C224.182 44.5063 226.463 46.8242 227.662 48.9929C228.083 49.7259 227.839 50.6641 227.095 51.0776C226.644 51.3366 226.098 51.326 225.659 51.1191C224.357 50.487 223.174 49.6814 222.018 48.8373C218.6 46.1272 215.014 42.2837 214.83 37.6705C214.831 36.4392 216.483 35.8441 217.295 36.7508L217.782 37.2526Z" fill="#FAFAFA"/>
<path d="M269.598 21.2061C269.598 21.2061 269.149 21.3467 268.989 21.4433C265.12 23.395 266.062 35.3049 263.194 41.6086C262.639 42.8322 266.197 45.6306 271.137 47.8662C276.076 50.1017 280.531 50.9307 281.086 49.7071C283.955 43.4034 293.553 36.2665 292.482 32.0793C292.448 31.8998 292.251 31.4542 292.251 31.4542C291.215 29.5655 287.132 26.6934 281.849 24.3092C276.565 21.9168 271.703 20.7396 269.596 21.1979L269.598 21.2061Z" fill="#DCF0F5"/>
<g style="mix-blend-mode:overlay" opacity="0.5">
<path d="M292.494 32.6765C291.752 34.3069 285.811 33.2054 279.217 30.2195C272.622 27.2335 267.874 23.4899 268.617 21.8676C269.359 20.2372 275.301 21.3387 281.895 24.3247C288.489 27.3106 293.237 31.0542 292.494 32.6765Z" fill="#FAFAFA"/>
</g>
<g style="mix-blend-mode:multiply" opacity="0.25">
<path d="M278.753 47.5356C276.651 47.6639 274.016 47.3654 271.788 46.402C269.541 45.4252 267.693 43.4725 266.351 41.9347C267.092 40.3985 267.63 38.7304 268.065 37.1908C268.815 34.7666 269.169 32.3214 269.686 29.9731C274.434 33.4679 279.775 35.8842 285.532 37.1526C283.199 40.3202 280.386 43.7352 278.745 47.5371L278.753 47.5356Z" fill="#DCF0F5"/>
</g>
<path d="M264.277 42.1321C264.392 41.8492 264.278 41.7853 264.333 41.8938C266.568 44.8804 270.572 46.5167 273.902 48.0547C274.378 48.2732 274.597 48.8339 274.374 49.3053C274.166 49.7655 273.628 49.9723 273.157 49.7783C272.116 49.3575 271.051 48.9916 270.027 48.5255C267.718 47.395 260.846 44.3234 261.978 41.0929C262.678 39.6224 264.914 40.6393 264.269 42.1335L264.277 42.1321Z" fill="#592641"/>
<path d="M281.107 49.7333C283.962 43.4271 293.537 36.2974 292.46 32.1037C292.426 31.924 292.229 31.4776 292.229 31.4776C291.191 29.5851 287.107 26.7033 281.826 24.308C276.544 21.9045 271.685 20.7183 269.581 21.1738C269.573 21.1753 269.133 21.3139 268.973 21.4103C265.112 23.3581 266.074 35.2829 263.219 41.5891" stroke="#592641" stroke-width="5.02005" stroke-linecap="round" stroke-linejoin="round"/>
<path d="M276.16 48.6954C277.44 48.9308 278.876 49.308 280.074 48.9472C280.137 48.9189 280.002 48.9263 279.882 49.1431C280.169 48.5142 280.909 48.2448 281.543 48.5291C282.901 49.2089 282.179 50.8923 280.981 51.2106C279.153 51.7105 277.345 51.0357 275.663 50.525C275.161 50.3525 274.887 49.8164 275.055 49.3194C275.211 48.8499 275.697 48.5922 276.17 48.7021L276.16 48.6954Z" fill="#592641"/>
<path d="M292.487 32.6897C291.748 34.321 285.807 33.2126 279.213 30.2173C272.618 27.2219 267.868 23.4698 268.61 21.8466" stroke="#592641" stroke-width="5.02005" stroke-linecap="round" stroke-linejoin="round"/>
<path d="M208.065 176.313C207.683 168.449 211.843 161.868 217.374 161.603C222.892 161.338 227.674 167.501 228.056 175.35C228.438 183.214 224.278 189.795 218.761 190.06C213.243 190.325 208.461 184.162 208.079 176.313H208.065Z" fill="#592641"/>
<path d="M216.734 173.021C216.593 170.177 218.022 167.793 219.917 167.695C221.813 167.597 223.468 169.842 223.61 172.686C223.751 175.531 222.323 177.915 220.427 178.013C218.531 178.096 216.876 175.865 216.734 173.021Z" fill="white"/>
<path d="M220.308 178.538C218.144 178.538 216.361 176.168 216.206 173.045C216.05 169.866 217.677 167.287 219.898 167.175C220.987 167.105 222.048 167.691 222.855 168.778C223.605 169.796 224.072 171.177 224.142 172.655C224.298 175.833 222.671 178.413 220.45 178.524C220.407 178.524 220.351 178.524 220.308 178.524V178.538ZM217.252 173.003C217.38 175.513 218.795 177.562 220.393 177.507C221.964 177.437 223.194 175.248 223.081 172.724C223.025 171.441 222.629 170.27 221.992 169.406C221.398 168.611 220.69 168.207 219.941 168.221C218.37 168.29 217.139 170.479 217.252 173.003Z" fill="#592641"/>
<path d="M180.265 204.997C174.804 204.997 170.645 203.491 167.886 200.507C163.896 196.185 164.604 190.454 164.632 190.203C164.83 188.712 166.217 187.652 167.73 187.847C169.244 188.042 170.305 189.409 170.107 190.901C170.107 190.915 169.725 194.428 172.003 196.854C173.8 198.778 176.884 199.671 181.156 199.517C184.368 199.406 186.674 198.499 187.989 196.84C190.126 194.149 189.362 190.106 189.348 190.064C189.036 188.586 189.998 187.15 191.498 186.843C192.998 186.537 194.455 187.485 194.766 188.963C194.823 189.227 196.082 195.516 192.347 200.214C189.97 203.198 186.278 204.788 181.354 204.969C180.986 204.969 180.619 204.983 180.251 204.983L180.265 204.997Z" fill="#592641"/>
<path d="M131.47 176.313C131.088 168.449 135.247 161.868 140.779 161.603C146.296 161.338 151.078 167.501 151.46 175.35C151.842 183.214 147.683 189.795 142.165 190.06C136.648 190.325 131.866 184.162 131.484 176.313H131.47Z" fill="#592641"/>
<path d="M140.123 173.036C139.981 170.192 141.41 167.808 143.306 167.71C145.202 167.612 146.857 169.857 146.999 172.702C147.14 175.546 145.711 177.93 143.815 178.028C141.92 178.111 140.264 175.881 140.123 173.036Z" fill="white"/>
<path d="M143.695 178.553C141.531 178.553 139.748 176.183 139.592 173.06C139.437 169.881 141.064 167.302 143.285 167.19C144.374 167.12 145.435 167.706 146.242 168.794C146.991 169.811 147.458 171.192 147.529 172.67C147.685 175.849 146.058 178.428 143.837 178.54C143.794 178.54 143.738 178.54 143.695 178.54V178.553ZM140.653 173.018C140.781 175.528 142.21 177.564 143.794 177.522C145.379 177.452 146.595 175.263 146.482 172.739C146.426 171.457 146.029 170.285 145.393 169.421C144.799 168.626 144.091 168.222 143.341 168.236C141.771 168.306 140.54 170.495 140.653 173.018Z" fill="#592641"/>
<path d="M50.8238 100.228C58.7063 95.9587 61.6383 86.2213 57.3344 78.4678C53.0306 70.7144 43.1425 67.9204 35.2601 72.1896C27.3776 76.4588 24.4456 86.1962 28.7495 93.9497C33.0533 101.703 42.9414 104.497 50.8238 100.228Z" fill="#4F4D4D" stroke="#592641" stroke-width="4.01604"/>
<g opacity="0.6">
<path d="M38.9359 76.3837C41.3981 75.2057 44.392 74.3169 48.0608 73.9493C47.2458 73.7854 44.7092 73.7393 43.8503 73.7055C36.5713 73.4167 31.9861 78.0286 30.0904 84.5815C31.2843 82.4329 33.1424 80.0519 35.9989 78.0718C35.9481 78.3751 35.973 78.6642 36.149 78.8813C36.5896 79.425 37.6242 79.3434 38.4602 78.6979C39.2961 78.0523 39.6155 77.0895 39.1749 76.5458C39.1144 76.4702 39.0187 76.4348 38.9359 76.3837Z" fill="white"/>
</g>
<g clip-path="url(#clip0_5700_67779)">
<path d="M202.958 101.514C206.954 96.6221 206.229 89.4171 201.337 85.421C196.445 81.4248 189.24 82.1507 185.244 87.0424C181.248 91.934 181.974 99.1389 186.866 103.135C191.757 107.131 198.962 106.405 202.958 101.514Z" fill="#4F4D4D" stroke="#592641" stroke-width="4.01604"/>
<g opacity="0.6">
<path d="M189.098 89.1833C190.317 87.847 191.938 86.5592 194.108 85.4287C193.564 85.5275 191.987 86.123 191.449 86.3133C186.885 87.9248 185.229 91.9132 185.726 96.4437C185.916 94.8174 186.457 92.8835 187.715 90.9528C187.761 91.1534 187.85 91.3266 188.014 91.4179C188.424 91.6467 189.041 91.3416 189.393 90.7356C189.745 90.1296 189.697 89.4538 189.287 89.225C189.23 89.193 189.162 89.1947 189.098 89.1833Z" fill="white"/>
</g>
</g>
<g clip-path="url(#clip1_5700_67779)">
<path d="M220.033 109.543C224.029 104.652 223.303 97.4469 218.411 93.4507C213.52 89.4546 206.315 90.1805 202.318 95.0721C198.322 99.9638 199.048 107.169 203.94 111.165C208.831 115.161 216.036 114.435 220.033 109.543Z" fill="#4F4D4D" stroke="#592641" stroke-width="4.01604"/>
<g opacity="0.6">
<path d="M206.172 97.2141C207.392 95.8778 209.012 94.59 211.182 93.4595C210.638 93.5583 209.061 94.1537 208.523 94.3441C203.959 95.9556 202.303 99.9439 202.8 104.474C202.99 102.848 203.531 100.914 204.79 98.9835C204.835 99.1841 204.924 99.3573 205.088 99.4487C205.498 99.6775 206.116 99.3724 206.467 98.7664C206.819 98.1603 206.771 97.4846 206.361 97.2558C206.304 97.2238 206.236 97.2254 206.172 97.2141Z" fill="white"/>
</g>
</g>
<g clip-path="url(#clip2_5700_67779)">
<path d="M193.927 112.259C198.301 107.702 198.152 100.462 193.595 96.0885C189.038 91.7148 181.798 91.8635 177.424 96.4206C173.05 100.978 173.199 108.218 177.756 112.591C182.313 116.965 189.553 116.816 193.927 112.259Z" fill="#4F4D4D" stroke="#592641" stroke-width="4.01604"/>
<g opacity="0.6">
<path d="M181.092 98.8623C182.414 97.6276 184.133 96.4732 186.386 95.5194C185.835 95.5745 184.216 96.0422 183.664 96.189C178.987 97.4312 177.018 101.275 177.152 105.83C177.471 104.225 178.164 102.34 179.573 100.516C179.603 100.719 179.677 100.899 179.833 101.003C180.224 101.264 180.864 101.009 181.263 100.433C181.661 99.8571 181.668 99.1798 181.277 98.919C181.223 98.8825 181.155 98.8787 181.092 98.8623Z" fill="white"/>
</g>
</g>
<g clip-path="url(#clip3_5700_67779)">
<path d="M149.194 112.026C154.056 107.995 154.73 100.784 150.698 95.9221C146.666 91.0597 139.456 90.3862 134.594 94.4179C129.731 98.4495 129.058 105.66 133.09 110.522C137.121 115.384 144.331 116.058 149.194 112.026Z" fill="#4F4D4D" stroke="#592641" stroke-width="4.01604"/>
<g opacity="0.6">
<path d="M137.966 97.2618C139.42 96.185 141.258 95.233 143.605 94.5409C143.052 94.5332 141.39 94.8143 140.825 94.8975C136.036 95.6011 133.644 99.1965 133.261 103.738C133.76 102.179 134.663 100.385 136.269 98.7323C136.276 98.938 136.329 99.125 136.473 99.2462C136.831 99.5496 137.496 99.3689 137.957 98.8418C138.419 98.3148 138.502 97.6424 138.143 97.339C138.094 97.2968 138.027 97.2853 137.966 97.2618Z" fill="white"/>
</g>
</g>
<g clip-path="url(#clip4_5700_67779)">
<path d="M173.683 113.668C178.259 109.313 178.438 102.074 174.084 97.4984C169.73 92.9226 162.491 92.743 157.915 97.0973C153.339 101.452 153.16 108.691 157.514 113.266C161.868 117.842 169.107 118.022 173.683 113.668Z" fill="#4F4D4D" stroke="#592641" stroke-width="4.01604"/>
<g opacity="0.6">
<path d="M161.477 99.7034C162.853 98.5298 164.622 97.4546 166.916 96.6038C166.364 96.6339 164.725 97.0278 164.167 97.1494C159.438 98.1783 157.297 101.929 157.224 106.486C157.616 104.896 158.394 103.045 159.884 101.286C159.904 101.491 159.971 101.674 160.122 101.785C160.5 102.063 161.151 101.838 161.575 101.28C162 100.723 162.037 100.047 161.659 99.7683C161.606 99.7295 161.539 99.7226 161.477 99.7034Z" fill="white"/>
</g>
</g>
<path d="M64.9278 180.419C43.382 162.152 31.9081 133.35 34.371 105.36C34.371 105.36 33.5489 101.707 36.0408 97.4166C36.9202 95.9169 38.3729 94.5094 40.2329 93.6709C42.0928 92.8325 44.2825 92.5408 46.6042 93.0967C49.35 93.7618 50.3309 95.2688 50.01 98.524C49.9059 99.5186 50.615 100.567 51.6186 100.425C52.5095 100.298 53.0659 98.0271 55.1379 98.1306C56.1335 98.1767 56.9636 98.8188 57.4897 99.7551C58.0236 100.706 58.249 101.925 57.8631 103.221C56.9736 106.206 55.2045 107.345 55.2045 107.345C52.374 126.606 58.4443 147.199 70.7344 162.251L66.0267 180.69L64.9278 180.419Z" fill="#EAD8C6"/>
<path d="M57.0013 107.585C54.0776 126.362 59.526 146.224 71.4462 161.086C72.4793 162.406 69.7024 164.807 68.5931 163.502C56.0025 148.234 49.9988 127.701 52.7781 107.882C53.1341 105.647 57.3086 105.312 57.0046 107.574L57.0013 107.585Z" fill="#592641"/>
<path d="M34.2093 105.392C34.2093 105.392 33.3916 101.729 35.8934 97.4212C36.7762 95.9157 38.233 94.5019 40.0967 93.6581C41.9605 92.8144 44.1535 92.5186 46.4775 93.0729C49.2259 93.736 50.2059 95.2461 49.8795 98.5116C49.7738 99.5094 50.4823 100.56 51.4874 100.416C52.3797 100.287 52.9403 98.0088 55.0149 98.1096C56.0118 98.1544 56.842 98.7972 57.3674 99.7356C57.9005 100.688 58.1244 101.911 57.736 103.211C56.8408 106.207 55.0676 107.351 55.0676 107.351" stroke="#592641" stroke-width="3.42354" stroke-linecap="round" stroke-linejoin="round"/>
<path d="M64.024 181.406C42.0768 162.979 30.3229 133.702 32.734 105.19C32.9554 102.963 35.9594 102.916 35.8199 105.19C33.2024 132.665 45.8404 160.975 66.8712 178.973C68.1312 180.06 65.3647 182.503 64.0207 181.417L64.024 181.406Z" fill="#592641"/>
<path d="M53.4143 101.122C51.7416 102.946 49.2858 103.618 48.3696 105.801C48.1231 106.505 47.3399 106.878 46.641 106.608C44.4365 105.515 47.285 102.285 48.2212 101.36C48.9195 100.629 50.185 99.7254 50.6702 99.0649C51.1273 98.2176 52.1857 97.8871 53.0364 98.3321C54.0905 98.8588 54.2637 100.327 53.411 101.133L53.4143 101.122Z" fill="#592641"/>
<path d="M321.28 89.67C325.715 79.9096 303.492 60.2976 271.627 45.8659C239.762 31.4342 210.334 27.6612 205.899 37.4216C205.445 38.4248 203.674 42.3114 203.221 43.3146C198.785 53.075 219.714 74.4934 251.579 88.9251C283.442 103.349 314.536 108.377 318.972 98.6167C319.425 97.6135 320.826 90.6732 321.28 89.67Z" fill="#DCF0F5"/>
<g style="mix-blend-mode:multiply" opacity="0.75">
<path d="M271.634 45.8703C239.765 31.436 210.333 27.6623 205.897 37.4244C205.444 38.4278 203.673 42.3151 203.219 43.3185C202.657 44.5529 202.527 45.9538 202.785 47.4702C210.254 59.6844 228.986 74.1547 253.104 85.0783C278.753 96.6959 303.398 101.077 317.166 97.5546C317.777 96.9705 318.28 96.313 318.615 95.5762C319.069 94.5729 320.84 90.6855 321.293 89.6821C325.729 79.9201 303.503 60.3045 271.634 45.8703Z" fill="#DCF0F5"/>
</g>
<path d="M329.078 88.455C323.159 101.477 289.857 99.1244 254.698 83.2018C219.539 67.2791 195.832 43.8191 201.751 30.7974C207.669 17.7757 241.862 18.1666 277.029 34.0878C312.189 50.0104 335.006 75.44 329.086 88.4535L329.078 88.455Z" fill="#DCF0F5"/>
<g style="mix-blend-mode:multiply" opacity="0.25">
<path d="M293.177 90.9508C268.242 85.9973 243.669 74.8775 223.518 59.4059C216.686 53.9034 201.621 41.2771 205.836 32.3579C210.156 23.2336 229.433 24.7107 238.696 25.6906C251.501 27.1596 264.243 30.5499 276.18 35.9535C288.109 41.3586 299.056 48.6912 308.604 57.3339C315.427 63.6323 329.256 77.1336 325.221 86.409C321.297 95.4274 301.854 92.468 293.183 90.9412L293.177 90.9508Z" fill="#DCF0F5"/>
</g>
<path d="M329.073 88.5454C323.171 101.573 289.883 99.1863 254.726 83.2161C219.569 67.2459 195.85 43.7428 201.752 30.7155C207.655 17.6882 241.83 18.1124 276.996 34.0811C312.153 50.0513 334.985 75.5248 329.081 88.5439L329.073 88.5454Z" stroke="#592641" stroke-width="5.02005" stroke-linecap="round" stroke-linejoin="round"/>
<path d="M202.289 46.4768C197.865 56.2451 220.382 75.8525 252.254 90.3328C284.124 104.805 313.61 108.93 318.034 99.1615" stroke="#592641" stroke-width="5.02005" stroke-linecap="round" stroke-linejoin="round"/>
<g style="mix-blend-mode:overlay" opacity="0.25">
<path d="M236.094 54.8021C227.929 45.9708 226.175 39.8666 227.848 38.0015C229.339 36.3383 233.758 33.7214 245.844 34.127C247.394 34.1832 248.988 34.2905 250.624 34.4408C242.674 32.3307 234.993 31.0834 228.162 30.8467C216.084 30.4396 212.575 33.6339 211.759 35.4447C210.935 37.257 211.114 41.4528 219.301 49.5626C228.39 58.5554 242.649 67.8163 258.421 74.9543C263.797 77.3881 269.242 79.5223 274.589 81.32C258.851 74.1842 244.869 64.2905 236.092 54.794L236.094 54.8021Z" fill="#FAFAFA"/>
</g>
<path d="M217.542 37.2526C218.737 38.739 220.982 41.1814 222.327 42.6491C223.941 44.5063 226.222 46.8242 227.421 48.9929C227.843 49.7259 227.599 50.6641 226.855 51.0776C226.404 51.3366 225.858 51.326 225.419 51.1191C224.117 50.487 222.934 49.6814 221.777 48.8373C218.359 46.1272 214.774 42.2837 214.59 37.6705C214.591 36.4392 216.243 35.8441 217.054 36.7508L217.542 37.2526Z" fill="#FAFAFA"/>
<path d="M269.356 21.2061C269.356 21.2061 268.906 21.3467 268.746 21.4433C264.878 23.395 265.82 35.3049 262.952 41.6086C262.396 42.8322 265.955 45.6306 270.894 47.8662C275.834 50.1017 280.289 50.9307 280.844 49.7071C283.713 43.4034 293.311 36.2665 292.24 32.0793C292.206 31.8998 292.009 31.4542 292.009 31.4542C290.973 29.5655 286.89 26.6934 281.607 24.3092C276.323 21.9168 271.46 20.7396 269.354 21.1979L269.356 21.2061Z" fill="#DCF0F5"/>
<g style="mix-blend-mode:overlay" opacity="0.5">
<path d="M292.252 32.6765C291.51 34.3069 285.569 33.2054 278.974 30.2195C272.38 27.2335 267.632 23.4899 268.375 21.8676C269.117 20.2372 275.058 21.3387 281.653 24.3247C288.247 27.3106 292.995 31.0542 292.252 32.6765Z" fill="#FAFAFA"/>
</g>
<g style="mix-blend-mode:multiply" opacity="0.25">
<path d="M278.509 47.5361C276.407 47.6643 273.771 47.3659 271.544 46.4024C269.297 45.4256 267.449 43.473 266.106 41.9352C266.848 40.399 267.386 38.7309 267.821 37.1913C268.57 34.7671 268.925 32.3219 269.442 29.9736C274.19 33.4684 279.53 35.8847 285.288 37.1531C282.954 40.3207 280.141 43.7357 278.501 47.5375L278.509 47.5361Z" fill="#DCF0F5"/>
</g>
<path d="M280.867 49.7333C283.721 43.4271 293.297 36.2974 292.22 32.1037C292.185 31.924 291.988 31.4776 291.988 31.4776C290.95 29.5851 286.867 26.7033 281.586 24.308C276.304 21.9045 271.444 20.7183 269.341 21.1738C269.333 21.1753 268.893 21.3139 268.733 21.4103C264.872 23.3581 265.834 35.2829 262.979 41.5891" stroke="#592641" stroke-width="5.02005" stroke-linecap="round" stroke-linejoin="round"/>
<path d="M292.245 32.6897C291.505 34.321 285.565 33.2126 278.971 30.2173C272.376 27.2219 267.626 23.4698 268.367 21.8466" stroke="#592641" stroke-width="5.02005" stroke-linecap="round" stroke-linejoin="round"/>
<path d="M207.819 176.313C207.437 168.449 211.597 161.868 217.128 161.603C222.646 161.338 227.428 167.501 227.81 175.35C228.192 183.214 224.032 189.795 218.515 190.06C212.997 190.325 208.215 184.162 207.833 176.313H207.819Z" fill="#592641"/>
<path d="M216.488 173.021C216.347 170.177 217.776 167.793 219.671 167.695C221.567 167.597 223.222 169.842 223.364 172.686C223.505 175.531 222.076 177.915 220.181 178.013C218.285 178.096 216.63 175.865 216.488 173.021Z" fill="white"/>
<path d="M220.062 178.538C217.898 178.538 216.115 176.168 215.96 173.045C215.804 169.866 217.431 167.287 219.652 167.175C220.741 167.105 221.802 167.691 222.609 168.778C223.359 169.796 223.825 171.177 223.896 172.655C224.052 175.833 222.425 178.413 220.204 178.524C220.161 178.524 220.105 178.524 220.062 178.524V178.538ZM217.006 173.003C217.134 175.513 218.548 177.562 220.147 177.507C221.718 177.437 222.948 175.248 222.835 172.724C222.779 171.441 222.382 170.27 221.746 169.406C221.152 168.611 220.444 168.207 219.694 168.221C218.124 168.29 216.893 170.479 217.006 173.003Z" fill="#592641"/>
<path d="M180.019 204.997C174.558 204.997 170.399 203.491 167.64 200.507C163.65 196.185 164.358 190.454 164.386 190.203C164.584 188.712 165.97 187.652 167.484 187.847C168.998 188.042 170.059 189.409 169.861 190.901C169.861 190.915 169.479 194.428 171.757 196.854C173.553 198.778 176.638 199.671 180.91 199.517C184.122 199.406 186.428 198.499 187.743 196.84C189.88 194.149 189.116 190.106 189.101 190.064C188.79 188.586 189.752 187.15 191.252 186.843C192.752 186.537 194.209 187.485 194.52 188.963C194.577 189.227 195.836 195.516 192.101 200.214C189.724 203.198 186.032 204.788 181.108 204.969C180.74 204.969 180.373 204.983 180.005 204.983L180.019 204.997Z" fill="#592641"/>
<path d="M131.224 176.313C130.842 168.449 135.001 161.868 140.533 161.603C146.05 161.338 150.832 167.501 151.214 175.35C151.596 183.214 147.437 189.795 141.919 190.06C136.402 190.325 131.62 184.162 131.238 176.313H131.224Z" fill="#592641"/>
<path d="M139.869 173.036C139.728 170.192 141.156 167.808 143.052 167.71C144.948 167.612 146.603 169.857 146.745 172.702C146.886 175.546 145.457 177.93 143.562 178.028C141.666 178.111 140.011 175.881 139.869 173.036Z" fill="white"/>
<path d="M143.441 178.553C141.277 178.553 139.494 176.183 139.338 173.06C139.183 169.881 140.81 167.302 143.031 167.19C144.12 167.12 145.181 167.706 145.988 168.794C146.738 169.811 147.204 171.192 147.275 172.67C147.431 175.849 145.804 178.428 143.583 178.54C143.54 178.54 143.484 178.54 143.441 178.54V178.553ZM140.399 173.018C140.527 175.528 141.956 177.564 143.54 177.522C145.125 177.452 146.341 175.263 146.228 172.739C146.172 171.457 145.776 170.285 145.139 169.421C144.545 168.626 143.837 168.222 143.087 168.236C141.517 168.306 140.286 170.495 140.399 173.018Z" fill="#592641"/>
<path d="M50.5797 100.228C58.4621 95.9587 61.3941 86.2213 57.0903 78.4678C52.7864 70.7144 42.8984 67.9204 35.0159 72.1896C27.1335 76.4588 24.2015 86.1962 28.5053 93.9497C32.8092 101.703 42.6972 104.497 50.5797 100.228Z" fill="#4F4D4D" stroke="#592641" stroke-width="4.01604"/>
<g opacity="0.6">
<path d="M38.6918 76.3837C41.154 75.2057 44.1478 74.3169 47.8166 73.9493C47.0016 73.7854 44.465 73.7393 43.6062 73.7055C36.3272 73.4167 31.7419 78.0286 29.8463 84.5815C31.0401 82.4329 32.8983 80.0519 35.7548 78.0718C35.704 78.3751 35.7289 78.6642 35.9049 78.8813C36.3455 79.425 37.3801 79.3434 38.216 78.6979C39.052 78.0523 39.3714 77.0895 38.9308 76.5458C38.8703 76.4702 38.7745 76.4348 38.6918 76.3837Z" fill="white"/>
</g>
<g clip-path="url(#clip5_5700_67779)">
<path d="M202.718 101.514C206.714 96.6221 205.988 89.4171 201.097 85.421C196.205 81.4248 189 82.1507 185.004 87.0424C181.008 91.934 181.734 99.1389 186.625 103.135C191.517 107.131 198.722 106.405 202.718 101.514Z" fill="#4F4D4D" stroke="#592641" stroke-width="4.01604"/>
<g opacity="0.6">
<path d="M188.854 89.1833C190.073 87.847 191.694 86.5592 193.864 85.4287C193.319 85.5275 191.743 86.123 191.204 86.3133C186.641 87.9248 184.985 91.9132 185.482 96.4437C185.672 94.8174 186.213 92.8835 187.471 90.9528C187.517 91.1534 187.606 91.3266 187.77 91.4179C188.18 91.6467 188.797 91.3416 189.149 90.7356C189.5 90.1296 189.453 89.4538 189.042 89.225C188.986 89.193 188.918 89.1947 188.854 89.1833Z" fill="white"/>
</g>
</g>
<g clip-path="url(#clip6_5700_67779)">
<path d="M219.788 109.543C223.785 104.652 223.059 97.4469 218.167 93.4507C213.275 89.4546 206.07 90.1805 202.074 95.0721C198.078 99.9638 198.804 107.169 203.696 111.165C208.587 115.161 215.792 114.435 219.788 109.543Z" fill="#4F4D4D" stroke="#592641" stroke-width="4.01604"/>
<g opacity="0.6">
<path d="M205.924 97.2141C207.144 95.8778 208.764 94.59 210.934 93.4595C210.39 93.5583 208.813 94.1537 208.275 94.3441C203.711 95.9556 202.055 99.9439 202.552 104.474C202.742 102.848 203.283 100.914 204.542 98.9835C204.587 99.1841 204.676 99.3573 204.84 99.4487C205.25 99.6775 205.868 99.3724 206.219 98.7664C206.571 98.1603 206.523 97.4846 206.113 97.2558C206.056 97.2238 205.988 97.2254 205.924 97.2141Z" fill="white"/>
</g>
</g>
<g clip-path="url(#clip7_5700_67779)">
<path d="M193.681 112.259C198.054 107.702 197.906 100.462 193.349 96.0885C188.791 91.7148 181.552 91.8635 177.178 96.4206C172.804 100.978 172.953 108.218 177.51 112.591C182.067 116.965 189.307 116.816 193.681 112.259Z" fill="#4F4D4D" stroke="#592641" stroke-width="4.01604"/>
<g opacity="0.6">
<path d="M180.85 98.8623C182.172 97.6276 183.891 96.4732 186.144 95.5194C185.593 95.5745 183.974 96.0422 183.422 96.189C178.744 97.4312 176.776 101.275 176.91 105.83C177.229 104.225 177.922 102.34 179.331 100.516C179.36 100.719 179.435 100.899 179.591 101.003C179.982 101.264 180.622 101.009 181.02 100.433C181.419 99.8571 181.425 99.1798 181.035 98.919C180.981 98.8825 180.913 98.8787 180.85 98.8623Z" fill="white"/>
</g>
</g>
<g clip-path="url(#clip8_5700_67779)">
<path d="M148.954 112.026C153.816 107.995 154.489 100.784 150.458 95.9221C146.426 91.0597 139.216 90.3862 134.354 94.4179C129.491 98.4495 128.818 105.66 132.849 110.522C136.881 115.384 144.091 116.058 148.954 112.026Z" fill="#4F4D4D" stroke="#592641" stroke-width="4.01604"/>
<g opacity="0.6">
<path d="M137.72 97.2618C139.174 96.185 141.012 95.233 143.359 94.5409C142.805 94.5332 141.144 94.8143 140.579 94.8975C135.79 95.6011 133.398 99.1965 133.015 103.738C133.514 102.179 134.417 100.385 136.023 98.7323C136.029 98.938 136.083 99.125 136.226 99.2462C136.585 99.5496 137.25 99.3689 137.711 98.8418C138.173 98.3148 138.256 97.6424 137.897 97.339C137.848 97.2968 137.781 97.2853 137.72 97.2618Z" fill="white"/>
</g>
</g>
<g clip-path="url(#clip9_5700_67779)">
<path d="M173.443 113.667C178.019 109.312 178.198 102.073 173.844 97.4974C169.49 92.9216 162.251 92.7421 157.675 97.0963C153.099 101.451 152.919 108.69 157.274 113.266C161.628 117.841 168.867 118.021 173.443 113.667Z" fill="#4F4D4D" stroke="#592641" stroke-width="4.01604"/>
<g opacity="0.6">
<path d="M161.232 99.7019C162.609 98.5283 164.378 97.4531 166.672 96.6024C166.12 96.6324 164.481 97.0263 163.923 97.1479C159.194 98.1769 157.053 101.927 156.98 106.484C157.372 104.894 158.15 103.043 159.64 101.285C159.66 101.49 159.727 101.673 159.878 101.784C160.256 102.062 160.907 101.836 161.331 101.279C161.756 100.721 161.793 100.045 161.414 99.7669C161.362 99.728 161.295 99.7212 161.232 99.7019Z" fill="white"/>
</g>
</g>
<path d="M176.84 345.703C160.757 345.703 145.834 344.8 131.544 342.851C127.492 342.304 125.593 338.109 125.593 334.077L124.258 249.76C124.258 240.391 117.566 232.98 108.341 230.705L102.438 229.975C98.8051 229.082 96.9932 230.234 94.0417 232.5C91.0902 234.765 89.4538 237.089 89.4538 240.775L91.2637 323.973C91.2637 325.979 90.9622 329.453 89.1211 330.307C87.2801 331.162 81.0084 326.368 79.4498 325.091C75.5145 321.875 73.5176 318.41 73.5176 314.781C73.5176 313.61 74.4819 312.659 75.6703 312.659C76.8587 312.659 77.8231 313.61 77.8231 314.781C77.8231 317.085 79.294 319.456 82.1968 321.827C82.5766 322.135 82.9565 322.029 83.1514 321.943C83.3462 321.856 83.6676 321.626 83.6676 321.146V240.218C83.6676 235.217 85.9568 230.589 89.9603 227.517C93.9638 224.445 99.0778 223.37 103.987 224.589L109.627 225.981C120.771 228.727 128.544 238.548 128.544 249.866L130.073 333.021C130.073 334.951 130.005 337.034 131.944 337.303C146.039 339.223 161.244 340.192 177.132 340.192C193.019 340.192 208.235 339.223 222.33 337.303C224.268 337.043 225.729 335.383 225.729 333.453V249.876C225.729 238.557 233.503 228.737 244.646 225.991L250.286 224.599C255.206 223.389 261.635 223.793 265.628 226.874C269.622 229.946 270.606 235.236 270.606 240.237V321.165C270.606 321.655 270.937 321.875 271.132 321.962C271.327 322.058 271.707 322.154 272.087 321.847C274.989 319.475 276.46 317.104 276.46 314.8C276.46 313.629 277.425 312.679 278.613 312.679C279.801 312.679 281.948 314.778 281.948 315.949C281.948 319.578 279.928 322.576 275.993 325.783C274.434 327.059 275.837 328.423 268.142 327.827C265.735 327.635 265.745 323.325 265.745 321.319L265.726 240.506C265.726 236.82 264.635 233.133 261.683 230.868C258.732 228.602 255.391 228.813 251.757 229.706L245.864 231.549C236.639 233.825 234.889 241.545 234.889 250.915L232.899 336.515C232.899 340.547 227.054 342.256 223.002 342.813C208.712 344.762 192.932 345.731 176.849 345.731L176.84 345.703Z" fill="#C8C8C8"/>
<path d="M80.9785 317.639C83.5495 321.439 85.7657 320.658 85.7657 320.172L84.1287 238.501C84.1287 233.443 86.4326 228.763 90.4619 225.657C94.4913 222.55 99.6382 221.462 104.579 222.695L110.256 224.103C121.471 226.88 129.657 237.375 129.657 248.822L131.167 333.686C131.167 335.637 131.726 336.414 133.677 336.676C147.863 338.618 162.206 339.598 178.196 339.598C194.186 339.598 209.499 338.618 223.685 336.676C225.636 336.414 227.107 334.734 227.107 332.783V248.259C227.107 236.812 234.93 226.88 246.145 224.103L251.822 222.695C256.773 221.472 264.155 222.783 267.763 226.356C271.371 229.928 272.272 234.627 272.272 239.676L271.663 320.595" stroke="#592641" stroke-width="4.22303" stroke-linecap="round" stroke-linejoin="round"/>
<path d="M275.006 314.174C275.468 318.456 273.675 319.566 270.961 321.442" stroke="#592641" stroke-width="2.53382" stroke-linecap="round" stroke-linejoin="round"/>
<path d="M282.86 312.149C286.717 328.197 264.63 333.836 264.63 326.427V285.517V244.607C264.63 232.444 260.489 228.793 249.658 231.479C240.375 233.779 235.946 240.166 235.946 249.639L233.948 337.149C233.948 341.226 229.381 343.254 225.303 343.808C210.923 345.778 195.415 346.768 179.232 346.768C163.048 346.768 147.55 345.768 133.17 343.808C129.092 343.254 124.518 341.226 124.518 337.149L123.069 253.861C123.069 244.607 118.862 235.121 106.109 231.959C98.5298 230.088 91.5395 233.518 91.5395 241.192C91.5395 241.192 92.6703 312.154 92.7481 325.231C92.826 338.308 70.7504 326.508 72.0365 312.994" stroke="#592641" stroke-width="3.92308" stroke-linecap="round" stroke-linejoin="round"/>
<path d="M270.301 321.692C271.167 321.815 271.577 322.778 272.429 322.53C273.281 322.282 274.083 321.855 274.791 321.274C275.498 320.693 276.097 319.969 276.553 319.143C277.008 318.317 277.312 317.405 277.446 316.46C277.581 315.515 277.599 314.412 277.392 313.492C277.184 312.572 276.755 311.853 276.237 311.097C275.719 310.342 275.067 309.709 274.318 309.233C273.569 308.758 272.737 308.45 271.871 308.327L270.301 321.692Z" fill="#592641"/>
<path d="M262.846 42.3667C267.58 48.1269 270.692 49.4282 280.107 50.6052" stroke="#592641" stroke-width="3.13846" stroke-linecap="round"/>
<defs>
<clipPath id="clip0_5700_67779">
<rect width="26.6689" height="19.3944" fill="white" transform="translate(179.5 82.3438) rotate(-5.75334)"/>
</clipPath>
<clipPath id="clip1_5700_67779">
<rect width="26.6689" height="16.7633" fill="white" transform="translate(196.564 90.377) rotate(-5.75334)"/>
</clipPath>
<clipPath id="clip2_5700_67779">
<rect width="26.6689" height="16.7633" fill="white" transform="translate(172.072 91.2808) rotate(-1.1766)"/>
</clipPath>
<clipPath id="clip3_5700_67779">
<path d="M129.859 88.707L156.413 91.1872L154.947 106.878C154.895 107.43 154.406 107.836 153.854 107.784L130.3 105.584C129.196 105.481 128.384 104.503 128.487 103.398L129.859 88.707Z" fill="white"/>
</clipPath>
<clipPath id="clip4_5700_67779">
<path d="M152.805 91.7202L179.465 92.3816L179.075 108.136C179.061 108.69 178.6 109.129 178.046 109.115L154.396 108.528C153.288 108.501 152.411 107.58 152.439 106.471L152.805 91.7202Z" fill="white"/>
</clipPath>
<clipPath id="clip5_5700_67779">
<rect width="26.6689" height="19.3944" fill="white" transform="translate(179.258 82.3438) rotate(-5.75334)"/>
</clipPath>
<clipPath id="clip6_5700_67779">
<rect width="26.6689" height="16.7633" fill="white" transform="translate(196.326 90.377) rotate(-5.75334)"/>
</clipPath>
<clipPath id="clip7_5700_67779">
<rect width="26.6689" height="16.7633" fill="white" transform="translate(171.834 91.2808) rotate(-1.1766)"/>
</clipPath>
<clipPath id="clip8_5700_67779">
<path d="M129.617 88.707L156.17 91.1872L154.705 106.878C154.653 107.43 154.164 107.836 153.612 107.784L130.058 105.584C128.953 105.481 128.142 104.503 128.245 103.398L129.617 88.707Z" fill="white"/>
</clipPath>
<clipPath id="clip9_5700_67779">
<path d="M152.562 91.7202L179.223 92.3816L178.832 108.136C178.819 108.69 178.358 109.129 177.804 109.115L154.154 108.528C153.046 108.501 152.169 107.58 152.197 106.471L152.562 91.7202Z" fill="white"/>
</clipPath>
</defs>
</svg>
