<svg width="357" height="357" viewBox="0 0 357 357" fill="none" xmlns="http://www.w3.org/2000/svg">
<g clip-path="url(#clip0_5967_503463)">
<g opacity="0.3">
<path d="M166 353C255.47 353 328 345.165 328 335.5C328 325.835 255.47 318 166 318C76.5299 318 4 325.835 4 335.5C4 345.165 76.5299 353 166 353Z" fill="#C7C7C7"/>
</g>
<path d="M88.4323 30.8271H197.4C205.349 30.8271 211.803 37.2814 211.803 45.2301V51.5432H74.0293V45.2301C74.0293 37.2814 80.4821 30.8271 88.4323 30.8271Z" fill="#C28373"/>
<g opacity="0.65">
<path d="M211.805 45.2262V51.5437H209.047V50.3743C209.047 42.4241 202.597 35.9743 194.64 35.9743H85.6763C81.2342 35.9743 77.2628 37.982 74.6152 41.1445C76.3729 35.18 81.8962 30.8262 88.4343 30.8262H197.398C205.355 30.8262 211.805 37.276 211.805 45.2262Z" fill="white"/>
</g>
<path d="M174.05 116.265V334.935H47.6787C41.3833 334.935 36.2793 329.831 36.2793 323.535V116.265H174.05Z" fill="white"/>
<path d="M255.194 116.265V323.535C255.194 329.831 250.09 334.935 243.795 334.935H174.045V116.265H255.194Z" fill="white"/>
<path d="M255.19 117V216.807C242.599 217.69 242.246 234.421 228.972 234.421C215.697 234.421 215.344 216.771 201.716 216.771C188.897 216.771 188.14 232.391 176.74 234.237V116.265L255.19 117Z" fill="#C28373"/>
<g opacity="0.65">
<path d="M255.206 116.997V234.418H247.741V116.997L176.756 116.335V116.262L255.206 116.997Z" fill="white"/>
</g>
<path d="M211.812 51.542L174.054 116.261H36.2832L74.0336 51.542H211.812Z" fill="#C28373"/>
<path d="M174.269 116.631H35.6465L73.8264 51.1768H212.456L174.269 116.631ZM36.9262 115.896H173.845L211.174 51.9122H74.2471L36.9262 115.896Z" fill="#592641"/>
<path d="M255.186 116.263H174.037L211.795 51.5439L255.186 116.263Z" fill="#C28373"/>
<path d="M255.879 116.631H173.4L211.776 50.8516L255.878 116.631H255.879ZM174.68 115.896H254.499L211.819 52.2371L174.68 115.896Z" fill="#592641"/>
<g opacity="0.65">
<path d="M253.727 116.57H246.645L207.041 57.4988L210.336 51.8506L253.727 116.57Z" fill="white"/>
</g>
<path d="M174.05 116.265V234.421C160.422 234.421 160.422 216.771 146.787 216.771C133.152 216.771 133.16 234.421 119.524 234.421C105.889 234.421 105.897 216.771 92.2687 216.771C78.6409 216.771 78.6409 234.421 65.0058 234.421C51.3706 234.421 51.378 216.771 37.7502 216.771C37.7502 216.771 37.2207 215.785 36.2793 214.042V116.265H174.05Z" fill="#C28373"/>
<path d="M211.808 51.5459L174.05 116.265H36.2793L74.0297 51.5459H211.808Z" fill="#C28373"/>
<path d="M101.26 73.6174C90.7242 84.4917 87.2426 97.6106 93.485 102.918C99.726 108.225 113.327 103.71 123.863 92.8361C134.399 81.9618 137.881 68.8429 131.638 63.5359C125.397 58.229 111.796 62.7431 101.26 73.6174Z" fill="white"/>
<path d="M100.349 105.515C97.4825 105.515 95.0555 104.738 93.2434 103.197C91.2886 101.535 90.178 99.0487 90.031 96.0069C89.7088 89.3497 93.9097 80.6714 100.992 73.3611C106.128 68.06 112.147 64.0813 117.94 62.1588C123.804 60.2128 128.752 60.6026 131.872 63.2546C133.827 64.9167 134.937 67.4025 135.084 70.4443C135.406 77.1016 131.206 85.7798 124.123 93.0902C118.987 98.3912 112.968 102.37 107.176 104.292C104.716 105.109 102.419 105.513 100.349 105.513V105.515ZM101.257 73.617L101.522 73.873C94.5745 81.0421 90.4546 89.51 90.7664 95.9716C90.9032 98.8046 91.9255 101.109 93.7199 102.636C95.4321 104.092 97.7237 104.782 100.364 104.782C107.109 104.782 116.13 100.284 123.595 92.5798C130.542 85.4106 134.664 76.9427 134.35 70.4811C134.214 67.6482 133.191 65.3433 131.397 63.8165C125.31 58.6404 111.908 63.1531 101.52 73.873L101.255 73.617H101.257Z" fill="#592641"/>
<g opacity="0.3">
<path d="M127.049 89.2229C125.247 93.5546 122.202 98.1512 118.084 102.402C107.552 113.272 93.9465 117.788 87.71 112.478C82.1426 107.756 84.3049 96.82 92.2992 86.7959C89.4898 93.5546 89.6883 99.6883 93.4906 102.917C99.7271 108.227 113.333 103.711 123.864 92.8413C125.012 91.6572 126.078 90.4437 127.049 89.2229Z" fill="#592641"/>
</g>
<g opacity="0.3">
<path d="M128.957 86.6467C127.516 88.7427 125.81 90.8314 123.861 92.8392C113.329 103.709 99.7233 108.225 93.4867 102.915C87.2428 97.6122 90.7214 84.4919 101.26 73.6146C103.871 70.9229 106.673 68.621 109.497 66.7529C103.092 76.0195 101.709 85.5509 106.806 89.8827C111.505 93.8762 120.367 92.3097 128.957 86.6467Z" fill="#592641"/>
</g>
<path d="M211.799 54.1141H74.0252C72.6043 54.1141 71.4512 52.9624 71.4512 51.5401V45.227C71.4512 35.8663 79.0674 28.25 88.4282 28.25H197.396C206.757 28.25 214.373 35.8663 214.373 45.227V51.5401C214.373 52.9624 213.221 54.1141 211.799 54.1141ZM76.6008 48.966H209.226V45.227C209.226 38.7051 203.921 33.3981 197.398 33.3981H88.4297C81.9077 33.3981 76.6008 38.7036 76.6008 45.227V48.966Z" fill="#592641"/>
<path d="M174.054 337.508H47.6839C39.9779 337.508 33.709 331.239 33.709 323.533V116.264C33.709 114.843 34.8622 113.689 36.283 113.689H174.054C175.475 113.689 176.628 114.843 176.628 116.264V334.933C176.628 336.356 175.475 337.508 174.054 337.508ZM38.8571 118.838V323.533C38.8571 328.4 42.8167 332.359 47.6839 332.359H171.48V118.838H38.8571Z" fill="#592641"/>
<path d="M243.798 337.508H174.049C172.626 337.508 171.475 336.356 171.475 334.933V116.264C171.475 114.843 172.626 113.689 174.049 113.689H255.198C256.62 113.689 257.772 114.843 257.772 116.264V323.534C257.772 331.239 251.503 337.508 243.798 337.508ZM176.623 332.359H243.798C248.664 332.359 252.624 328.4 252.624 323.534V118.838H176.623V332.359Z" fill="#592641"/>
<path d="M100.366 107.341C97.1076 107.341 94.2408 106.457 92.0551 104.598C89.7031 102.599 88.369 99.6586 88.1969 96.0961C88.0263 92.5719 88.9971 88.4872 91.0034 84.2863C93.0082 80.0884 96.0073 75.8684 99.6743 72.0824C111.178 60.2079 125.846 55.7158 133.066 61.8553C135.418 63.8542 136.752 66.7945 136.925 70.357C137.095 73.8813 136.124 77.9659 134.118 82.1668C132.113 86.3647 129.114 90.5847 125.447 94.3708C117.426 102.649 107.866 107.341 100.366 107.341ZM102.844 75.1536C96.2397 81.9697 92.3169 89.914 92.6052 95.8843C92.7184 98.2304 93.495 100.031 94.9145 101.237C97.2885 103.255 101.463 103.48 106.37 101.852C111.777 100.057 117.426 96.3109 122.28 91.301C128.885 84.4849 132.809 76.5406 132.519 70.5703C132.406 68.2242 131.629 66.4238 130.21 65.2177C127.836 63.1997 123.66 62.9761 118.755 64.6029C113.348 66.3974 107.698 70.1437 102.844 75.1536Z" fill="#592641"/>
<path d="M174.053 118.837H36.2823C35.3601 118.837 34.5099 118.345 34.051 117.546C33.5921 116.747 33.595 115.763 34.0598 114.968L71.8102 50.2484C72.2721 49.4571 73.1178 48.9717 74.0342 48.9717H211.812C212.735 48.9717 213.585 49.4644 214.044 50.2631C214.503 51.0618 214.5 52.0458 214.035 52.8416L176.277 117.561C175.815 118.352 174.97 118.837 174.053 118.837ZM40.7641 113.689H172.575L207.329 54.1183H75.511L40.7641 113.689Z" fill="#592641"/>
<path d="M152.849 305.026H125.173C122.533 305.026 120.393 307.167 120.393 309.807V317.407C120.393 320.047 122.533 322.187 125.173 322.187H152.849C155.489 322.187 157.63 320.047 157.63 317.407V309.807C157.63 307.167 155.489 305.026 152.849 305.026Z" fill="#C28373"/>
<path d="M255.197 118.837H174.048C173.126 118.837 172.276 118.345 171.817 117.546C171.358 116.747 171.361 115.763 171.825 114.968L209.583 50.2483C210.03 49.482 210.839 49.001 211.726 48.9731C212.607 48.9437 213.45 49.3761 213.944 50.113L257.336 114.832C257.865 115.622 257.917 116.638 257.469 117.477C257.022 118.315 256.149 118.839 255.198 118.839L255.197 118.837ZM178.53 113.689H250.372L211.957 56.3923L178.53 113.689Z" fill="#592641"/>
<path d="M112.371 61.6685C111.642 66.1106 108.791 71.4132 104.192 76.1568C99.5997 80.9078 94.2456 84.0775 89.5903 85.1954C86.7559 85.8794 84.1892 85.7985 82.2035 84.8424C81.6857 84.5997 81.2136 84.2982 80.7826 83.9305C75.9787 79.8414 78.6557 69.729 86.772 61.3523C94.7399 53.13 104.977 49.622 109.9 53.3654L110.474 53.8508L110.498 53.8728C112.335 55.6673 112.916 58.4399 112.374 61.6685H112.371Z" fill="white"/>
<path d="M86.079 86.0121C84.5595 86.0121 83.1946 85.7326 82.037 85.1752C81.4869 84.9178 80.9956 84.6015 80.5366 84.2117C79.0128 82.9159 78.1479 80.9773 78.0347 78.6076C77.7876 73.4522 81.0309 66.742 86.5011 61.0982C94.6293 52.7111 105.002 49.1854 110.115 53.0745L110.13 53.0862L110.74 53.6055C112.626 55.447 113.311 58.2549 112.727 61.7307C111.953 66.4346 108.937 71.7857 104.447 76.4145C99.9745 81.042 94.5866 84.3735 89.6679 85.5547C88.4015 85.8606 87.1983 86.0121 86.0775 86.0121H86.079ZM104.873 52.2331C103.284 52.2331 101.503 52.5611 99.5906 53.2201C95.3 54.6983 90.8388 57.6769 87.0292 61.6086C81.6957 67.1126 78.5304 73.6125 78.7686 78.5709C78.8745 80.764 79.6291 82.4717 81.0132 83.6498C81.4207 83.997 81.859 84.2779 82.3517 84.5089C84.2109 85.4046 86.6806 85.5164 89.4973 84.8369C94.2851 83.6866 99.542 80.4301 103.921 75.8997C108.307 71.3767 111.253 66.1668 112.003 61.6071C112.545 58.3785 111.933 55.7941 110.232 54.1335L110.222 54.1232L109.663 53.6496C108.416 52.7053 106.785 52.2302 104.873 52.2302V52.2331Z" fill="#592641"/>
<path d="M112.455 61.1221C112.433 61.2986 112.403 61.4825 112.374 61.6664C112.315 62.0341 112.242 62.4018 112.146 62.7769L105.034 75.2574C104.762 75.5589 104.483 75.8605 104.196 76.1546C100.092 80.3982 95.3779 83.3841 91.0976 84.7594C90.5901 84.9285 90.0827 85.0756 89.5899 85.1933C88.2882 85.5095 87.0453 85.6639 85.8833 85.6345C84.5227 85.6198 83.2798 85.3624 82.2061 84.8402C81.6839 84.5975 81.2132 84.296 80.7866 83.9283C75.9768 79.8392 78.6538 69.7269 86.7732 61.3501C87.06 61.056 87.3395 60.7691 87.6336 60.4897C95.4661 52.8852 105.159 49.7522 109.903 53.3632L110.477 53.8486L110.499 53.8707C111.065 54.4222 111.506 55.0694 111.844 55.7902C112.528 57.2831 112.72 59.107 112.455 61.1221Z" fill="white"/>
<path d="M86.1556 86.0075C86.0585 86.0075 85.9629 86.0075 85.8673 86.0046C84.4302 85.9884 83.1403 85.7089 82.0386 85.1735C81.4855 84.9161 80.9928 84.5999 80.5397 84.2101C79.0159 82.9142 78.1495 80.9771 78.0348 78.606C77.7862 73.4505 81.031 66.7418 86.5013 61.0965L86.5145 61.0833C86.8043 60.7861 87.0778 60.5067 87.372 60.2257C91.2022 56.5073 95.6193 53.717 99.8055 52.3726C104.065 51.0047 107.728 51.2533 110.116 53.0728L110.131 53.0846L110.75 53.6126C111.323 54.1701 111.801 54.8511 112.168 55.6351C112.874 57.178 113.091 59.0387 112.811 61.17C112.789 61.3524 112.758 61.5422 112.729 61.726C112.664 62.1276 112.588 62.5012 112.493 62.8689L112.482 62.9175L105.326 75.4759L105.299 75.5053C104.992 75.8451 104.715 76.1422 104.451 76.4129C100.432 80.5681 95.7267 83.657 91.2008 85.1117C90.6771 85.2868 90.1594 85.4353 89.6666 85.553C88.4237 85.8545 87.2426 86.0075 86.1541 86.0075H86.1556ZM104.898 52.2461C99.979 52.2461 93.4321 55.3674 87.8824 60.7553C87.5941 61.0288 87.3264 61.3039 87.0411 61.5951L87.0293 61.6084C81.6959 67.111 78.5305 73.6108 78.7688 78.5692C78.8747 80.7623 79.6307 82.4715 81.0163 83.6497C81.4193 83.9968 81.8562 84.2777 82.3533 84.5087C83.3624 84.9999 84.5465 85.2544 85.8791 85.2691C86.9867 85.2971 88.2031 85.1529 89.4945 84.8381C89.9681 84.7249 90.4653 84.5822 90.9728 84.4131C95.3884 82.9936 99.9864 79.971 103.922 75.901C104.173 75.6436 104.436 75.3641 104.726 75.042L111.793 62.6395C111.876 62.3085 111.945 61.9717 112.002 61.6098C112.032 61.4304 112.059 61.2509 112.082 61.0789V61.0759C112.343 59.0828 112.149 57.3575 111.502 55.9454C111.173 55.2453 110.746 54.6349 110.234 54.1363L110.219 54.1215L109.665 53.6523C108.409 52.6992 106.772 52.2461 104.898 52.2461Z" fill="#592641"/>
<path d="M115.182 85.5084C114.13 86.5895 113.042 87.5971 111.931 88.5017C111.931 88.5017 111.931 88.5091 111.924 88.5164C104.717 94.4441 96.5752 96.6725 92.2508 93.6498L92.1993 93.6057L91.2065 92.7379L91.1918 92.7232L82.1973 84.8465C84.183 85.8026 86.7497 85.8835 89.5811 85.1996C93.1922 84.3317 97.2224 82.2284 100.995 79.1101C102.091 78.2128 103.157 77.2273 104.187 76.1609C108.784 71.4173 111.637 66.1148 112.365 61.6727C112.909 58.4441 112.328 55.6714 110.49 53.877L121.176 62.9376C125.978 67.0267 123.301 77.1317 115.182 85.5084Z" fill="white"/>
<path d="M97.0641 95.3538C95.1152 95.3538 93.3957 94.8978 92.041 93.9506L91.9616 93.8844L90.9423 92.9915L79.9238 83.3425L82.3581 84.5148C84.2144 85.4076 86.6826 85.5209 89.4964 84.8414C93.1221 83.9706 97.1229 81.8334 100.762 78.8254C101.843 77.9399 102.906 76.9574 103.923 75.9042C108.312 71.3754 111.257 66.1655 112.002 61.6116C112.547 58.383 111.935 55.7986 110.233 54.138L110.727 53.5938L121.413 62.6544C122.937 63.9518 123.802 65.8889 123.915 68.2571C124.162 73.4096 120.916 80.1169 115.446 85.7607C114.376 86.8609 113.287 87.8655 112.207 88.748C112.2 88.7569 112.192 88.7657 112.183 88.773L112.157 88.7966C107.007 93.0327 101.455 95.3509 97.0626 95.3509L97.0641 95.3538ZM92.4764 93.3578C96.5964 96.2202 104.424 94.1565 111.564 88.3362V88.3274L111.699 88.217C112.772 87.3448 113.854 86.3461 114.919 85.2532C120.253 79.7506 123.42 73.2522 123.181 68.2968C123.077 66.1052 122.322 64.3975 120.938 63.2193L112.275 55.8736C112.953 57.4872 113.112 59.47 112.729 61.7366C111.96 66.4332 108.943 71.7857 104.452 76.419C103.415 77.4928 102.331 78.4945 101.23 79.3961C97.5068 82.4732 93.4016 84.6619 89.6685 85.5592C87.5048 86.0813 85.522 86.1563 83.829 85.7871L92.4779 93.3607L92.4764 93.3578Z" fill="#592641"/>
<path d="M86.0848 87.8486C84.2903 87.8486 82.6576 87.5103 81.2529 86.8366C80.5616 86.5116 79.9218 86.0997 79.3481 85.6114C77.4286 83.9772 76.3401 81.5855 76.2004 78.6952C75.9298 73.0485 79.3717 65.8161 85.1831 59.8178C89.2693 55.6008 94.0894 52.3943 98.755 50.7866C103.812 49.045 108.242 49.3377 111.231 51.6103C111.262 51.6338 111.291 51.6573 111.321 51.6823L111.895 52.1677C111.922 52.1913 111.95 52.2163 111.977 52.2413L112 52.2634C112.012 52.2737 112.024 52.2854 112.034 52.2957C114.33 54.5388 115.222 57.9954 114.545 62.033C113.711 67.0973 110.513 72.8058 105.773 77.695C101.066 82.5652 95.3529 86.0821 90.1018 87.3426C88.6986 87.6809 87.3512 87.8501 86.0848 87.8501V87.8486ZM104.867 54.0828C100.5 54.0828 94.0835 56.9731 88.3514 62.8876C83.4357 67.9607 80.3954 74.0811 80.6072 78.482C80.6866 80.147 81.225 81.4135 82.2075 82.2489C82.4885 82.4887 82.7915 82.6828 83.1342 82.8431C83.1415 82.8461 83.1474 82.849 83.1548 82.8535C84.6242 83.561 86.6687 83.6286 89.0678 83.0491C93.5275 81.9783 98.4579 78.907 102.601 74.6223C106.736 70.3597 109.501 65.5087 110.191 61.3093C110.191 61.3064 110.191 61.3049 110.191 61.302C110.494 59.4972 110.528 57.0305 108.985 55.4861L108.517 55.0889C107.613 54.4182 106.358 54.0814 104.865 54.0814L104.867 54.0828Z" fill="#592641"/>
<path d="M97.0723 97.1918C94.7541 97.1918 92.6714 96.6313 90.9901 95.4546C90.9504 95.4267 90.9122 95.3987 90.8754 95.3678L90.821 95.3237C90.796 95.3031 90.771 95.2825 90.746 95.2605L89.7575 94.3926C89.7443 94.3809 89.7296 94.3676 89.7163 94.3559L80.7468 86.5028C79.9173 85.7762 79.7511 84.5465 80.36 83.6272C80.969 82.7064 82.1633 82.3769 83.1576 82.855C84.6271 83.5625 86.6716 83.6301 89.0706 83.0506C93.5304 81.9798 98.4608 78.9086 102.604 74.6239C106.739 70.3612 109.504 65.5102 110.194 61.3108C110.5 59.4855 110.532 56.9938 108.953 55.4508C108.102 54.6198 108.063 53.2666 108.863 52.387C109.663 51.5088 111.015 51.4206 111.921 52.1899L122.605 61.2506C124.529 62.8877 125.618 65.2778 125.756 68.1681C126.027 73.8105 122.585 81.0428 116.773 87.0397C110.51 93.5042 103.016 97.1903 97.0752 97.1903L97.0723 97.1918ZM93.5907 91.8862C95.3954 93.0953 98.4196 93.0821 101.91 91.8495C105.889 90.4448 110.041 87.6457 113.604 83.9684C118.519 78.8953 121.56 72.7764 121.348 68.3785C121.268 66.7149 120.73 65.4485 119.748 64.613L114.738 60.3651C114.704 60.9078 114.639 61.4653 114.545 62.0331C113.714 67.0914 110.516 72.8014 105.773 77.6921C101.066 82.5623 95.3528 86.0792 90.1017 87.3397C89.6354 87.4515 89.1765 87.5456 88.7235 87.6207L92.6493 91.0581C92.664 91.0714 92.6787 91.0846 92.6934 91.0978L93.5907 91.8848V91.8862Z" fill="#592641"/>
<path d="M255.16 118.18C254.873 118.18 254.582 118.113 254.31 117.97L192.122 85.4516C191.222 84.9809 190.875 83.8703 191.344 82.9702C191.814 82.07 192.925 81.7214 193.825 82.1921L256.013 114.711C256.913 115.181 257.26 116.292 256.791 117.192C256.463 117.82 255.823 118.179 255.16 118.179V118.18Z" fill="#592641"/>
<g opacity="0.3">
<path d="M112.444 61.126C112.422 61.3025 112.393 61.4864 112.363 61.6703C112.305 62.038 112.231 62.4057 112.135 62.7808L105.024 75.2613L87.623 60.4936C95.4555 52.8891 105.149 49.7561 109.892 53.3671L110.466 53.8525L110.488 53.8746C111.054 54.4261 111.496 55.0733 111.834 55.7941C112.518 57.287 112.709 59.1109 112.444 61.126Z" fill="#592641"/>
</g>
<g opacity="0.3">
<path d="M111.935 88.5C111.935 88.5 111.935 88.5074 111.928 88.5148C104.72 94.4424 96.5791 96.6708 92.2547 93.6482L92.2032 93.604L91.2104 92.7362L91.1957 92.7215L82.2012 84.8449C84.1869 85.8009 86.7536 85.8819 89.585 85.1979C93.1961 84.3301 97.2263 82.2267 100.999 79.1084L111.935 88.5Z" fill="#592641"/>
</g>
<path d="M47.441 49.189C46.9306 50.6084 46.3555 51.9764 45.7186 53.259C45.7186 53.259 45.7215 53.2663 45.7186 53.2752C41.6074 61.6533 35.1164 67.0486 29.9286 66.0837L29.8638 66.0646L28.6004 65.6851L28.5812 65.6777L17.1348 62.2255C19.3382 62.2755 21.7092 61.2871 24.0038 59.4941C26.9324 57.2113 29.7329 53.6297 31.8775 49.2302C32.5041 47.9608 33.0675 46.6223 33.5646 45.225C35.7886 39.0046 36.1931 32.9975 35.0193 28.651C34.1794 25.4856 32.5041 23.2028 30.0874 22.3291L43.5637 26.1593C49.6267 27.8964 51.3683 38.2044 47.4395 49.189H47.441Z" fill="white"/>
<path d="M43.6994 29.9568C44.0342 34.4461 42.5114 40.2694 39.1537 45.9617C35.807 51.6592 31.3483 55.9983 27.0854 58.1795C24.4916 59.5103 21.977 60.0357 19.8223 59.5726C19.2617 59.4579 18.7334 59.2759 18.2267 59.0203C12.5949 56.1758 12.821 45.7167 18.7405 35.6668C24.5527 25.8015 33.6786 19.986 39.3426 22.4667L40.0135 22.8032L40.0419 22.8191C42.25 24.1311 43.4663 26.6894 43.6982 29.9551L43.6994 29.9568Z" fill="white"/>
<g opacity="0.3">
<path d="M39.1153 46.0306C35.7775 51.6969 31.3352 56.0136 27.094 58.1825C24.4959 59.5125 21.9848 60.0355 19.826 59.5777C19.264 59.4627 18.7374 59.2796 18.2319 59.0256C12.5986 56.1809 12.8253 45.7189 18.7457 35.6721C20.1777 33.2355 21.8167 31.0481 23.5534 29.1714C23.552 29.1786 23.542 29.1917 23.5407 29.1989C17.6189 39.2529 17.3936 49.7077 23.0269 52.5524C23.5324 52.8064 24.059 52.9894 24.621 53.1044C26.7784 53.5695 29.2909 53.0393 31.889 51.7093C34.3133 50.4658 36.8039 48.5237 39.1153 46.0306Z" fill="#592641"/>
</g>
<path d="M19.5659 61.7738C19.5023 61.7617 19.4402 61.7498 19.3784 61.7365C18.6305 61.5829 17.9115 61.3331 17.2383 60.9931C14.9879 59.8558 13.3677 57.7877 12.554 55.0113C10.9635 49.5869 12.6084 41.7474 16.8469 34.5507C19.8274 29.4915 23.7583 25.2416 27.9151 22.5819C32.42 19.6998 36.7956 18.9419 40.2347 20.4489C40.2706 20.4647 40.3051 20.4803 40.3393 20.4973L41.0102 20.8338C41.043 20.8506 41.0757 20.8673 41.1067 20.8852L41.1351 20.9012C41.1487 20.9083 41.1621 20.9168 41.1754 20.9253C43.9332 22.5656 45.6131 25.7143 45.9047 29.7955C46.2854 34.9136 44.5197 41.2161 41.0596 47.0835C37.6287 52.9237 32.9036 57.6851 28.096 60.1454C25.0656 61.6997 22.1204 62.261 19.5647 61.7721L19.5659 61.7738ZM37.5321 24.2044C33.2558 23.3864 25.8765 27.9156 20.6493 36.7891C17.0635 42.8752 15.5475 49.5398 16.7888 53.7683C17.2572 55.3674 18.0791 56.4726 19.2303 57.0537C19.5594 57.22 19.9008 57.3377 20.2713 57.4131C20.2785 57.4145 20.2857 57.4159 20.2944 57.4175C21.887 57.7581 23.8919 57.3449 26.0873 56.2179C30.1696 54.128 34.2419 49.9845 37.2601 44.8457C40.2767 39.7305 41.8241 34.3657 41.5067 30.1223L41.5081 30.1151C41.3765 28.2899 40.8287 25.8848 38.9666 24.7454L38.4188 24.4699C38.1417 24.3525 37.8456 24.2644 37.5335 24.2047L37.5321 24.2044Z" fill="#592641"/>
<path d="M32.4318 68.2716C31.8944 68.1688 31.3733 68.0197 30.8677 67.8211C30.8231 67.8036 30.7774 67.7844 30.7334 67.764L30.6702 67.734C30.6413 67.7209 30.6126 67.7065 30.5842 67.6905L29.4191 67.0798C29.4029 67.0707 29.3878 67.0633 29.3716 67.0542L18.806 61.5288C17.8286 61.0169 17.3787 59.8616 17.754 58.8237C18.1293 57.7858 19.2146 57.1772 20.292 57.4163C21.8847 57.7569 23.8896 57.3437 26.0849 56.2167C30.1672 54.1267 34.2395 49.9833 37.2577 44.8444C40.2744 39.7293 41.8218 34.3645 41.5043 30.1211C41.3723 28.2748 40.8185 25.8462 38.9213 24.718C37.8993 24.1107 37.5428 22.804 38.1136 21.7615C38.6844 20.7191 39.9774 20.3165 41.0403 20.8508L53.5553 27.1459C55.8097 28.2855 57.4298 30.3536 58.2438 33.1285C59.8335 38.5498 58.1874 46.3876 53.9492 53.5828C48.0698 63.5641 39.1294 69.5528 32.4333 68.2719L32.4318 68.2716ZM32.5554 63.7427C34.5923 64.4932 37.5295 63.7702 40.6322 61.7519C44.1692 59.4514 47.548 55.7548 50.1453 51.3442C53.7311 45.2581 55.2468 38.5949 54.0076 34.3713C53.539 32.7737 52.7185 31.6688 51.5672 31.0876L45.6997 28.1367C45.7948 28.673 45.8638 29.2283 45.9035 29.8035C46.2839 34.9156 44.5182 41.218 41.0581 47.0855C37.6272 52.9256 32.9021 57.687 28.0945 60.1473C27.6677 60.3667 27.2433 60.5655 26.821 60.7453L31.4442 63.1632C31.4605 63.1723 31.4781 63.1817 31.4944 63.1908L32.5534 63.7453L32.5554 63.7427Z" fill="#592641"/>
<g opacity="0.3">
<path d="M49.5854 56.1371C49.5854 56.1371 49.5869 56.1448 49.5823 56.1529C43.9703 63.6095 36.5812 67.6891 31.667 65.7667L31.607 65.7357L30.4373 65.1256L30.4199 65.1148L19.8259 59.5735C21.9807 60.0366 24.4953 59.5112 27.0859 58.1812C30.3912 56.4893 33.8148 53.4977 36.7478 49.5795L49.5854 56.1371Z" fill="#592641"/>
</g>
<path d="M43.2069 63.4556C43.0494 63.4255 42.894 63.3688 42.7471 63.2838L30.6692 56.3085C29.9651 55.9028 29.7253 55.0033 30.1311 54.2992C30.5368 53.5951 31.4378 53.3556 32.1404 53.761L44.2183 60.7363C44.9224 61.1421 45.1621 62.0416 44.7564 62.7457C44.4342 63.3025 43.8035 63.5698 43.2069 63.4556Z" fill="#592641"/>
<path d="M51.1825 53.0665C51.0251 53.0364 50.8697 52.9797 50.7227 52.8947L39.6224 46.4853C38.9182 46.0795 38.6785 45.18 39.0842 44.4759C39.49 43.7718 40.3909 43.5323 41.0936 43.9378L52.1939 50.3472C52.898 50.753 53.1378 51.6524 52.732 52.3566C52.4099 52.9134 51.7792 53.1806 51.1825 53.0665Z" fill="#592641"/>
<path d="M54.5966 40.8946C54.4391 40.8645 54.2837 40.8078 54.1368 40.7228L43.0364 34.3134C42.3323 33.9076 42.0925 33.0082 42.4983 32.304C42.904 31.5999 43.805 31.3605 44.5076 31.7659L55.608 38.1753C56.3121 38.5811 56.5518 39.4806 56.1461 40.1847C55.8239 40.7415 55.1932 41.0088 54.5966 40.8946Z" fill="#592641"/>
<g opacity="0.3">
<path d="M211.81 51.5439L209.96 92.7524L174.053 116.263L211.81 51.5439Z" fill="#592641"/>
</g>
<g opacity="0.3">
<path d="M174.058 334.932H47.6865C41.3911 334.932 36.2871 329.828 36.2871 323.532V116.262C47.1055 244.582 99.0721 307.933 174.058 334.932Z" fill="#592641"/>
</g>
<path d="M59.98 187.495L60.6463 180.996L61.4788 162.113C61.4229 159.504 61.5906 156.393 61.7009 153.838C61.7009 153.727 61.8671 153.504 62.0348 153.393C63.8117 152.115 65.9224 152.115 67.9772 152.115H68.3655C69.6982 152.115 70.4204 152.393 71.1985 153.504C72.6988 156.281 74.3638 159.668 75.5861 162.723L75.6964 162.835H75.8082L75.9186 162.723C76.0289 162.557 76.3069 162.057 76.3069 162.001L78.6397 154.892C79.1398 152.559 81.6388 152.115 83.6937 152.115H83.7496C85.6382 152.227 88.4152 152.281 90.4701 152.615C91.5247 152.949 92.3028 156.169 92.4146 157.225L94.9136 188.159L94.8577 188.271C94.746 188.327 94.2473 188.383 94.1355 188.383C93.0809 188.493 88.1931 188.66 87.1385 188.66C87.0826 188.66 86.5825 188.715 86.3604 188.715C86.1942 188.715 85.6382 188.66 85.5279 188.66C85.1396 188.493 85.1396 187.271 85.0837 186.827L83.6393 165.777L80.1959 177.718C79.1957 180.05 77.641 180.217 76.1966 179.716C74.808 179.216 74.6418 179.16 70.31 165.609C70.31 165.553 70.1983 165.497 70.1438 165.497L70.032 165.609C70.032 165.943 70.1983 174.273 70.1983 174.939C70.1983 176.161 70.2542 179.883 70.2542 180.215C70.2542 180.881 70.588 185.88 70.6425 186.491V187.046C70.6425 189.213 66.8108 189.213 65.3664 189.213H64.5339C64.3676 189.157 62.6452 188.879 62.1451 188.823H61.923C61.3111 188.712 59.9785 188.434 59.9785 187.546V187.49L59.98 187.495Z" fill="white"/>
<path d="M98.4662 180.608C98.4662 178.553 98.578 176.498 98.578 174.5V173.944C98.578 173.055 98.3559 166.168 98.3 165.28C98.3 164.502 98.4662 163.113 98.2441 162.171V152.951C98.2441 152.785 98.9104 152.396 99.0767 152.396H107.74C108.074 152.396 108.074 152.73 108.074 152.897C108.074 157.561 107.74 162.282 107.74 166.948C107.74 170.281 107.906 173.557 107.906 176.834C107.906 179.833 107.906 181.944 107.74 184.941C107.184 187.496 103.297 187.44 101.131 187.44H100.631C97.9661 187.44 98.7987 186.274 98.4648 184.163V180.608H98.4662Z" fill="white"/>
<path d="M111.8 160.058C111.8 159.226 111.412 153.782 111.412 152.949C111.412 152.894 111.468 152.449 111.69 152.339C111.912 152.339 113.411 152.227 113.745 152.227H122.408C122.686 152.394 122.797 152.671 122.797 152.949V154.948C122.797 157.948 122.909 162.335 122.797 165.334C122.741 166.057 122.686 169.944 122.686 170.833C122.686 170.999 122.631 173.832 122.631 174.886C122.631 175.441 122.686 178.274 122.686 178.886C123.075 178.996 123.241 178.996 123.575 178.996C124.575 178.996 125.519 178.886 126.518 178.886C127.685 178.886 129.351 178.942 129.351 180.386C129.351 182.607 129.239 184.662 129.295 186.939C128.907 188.271 127.24 188.883 125.964 188.938C122.242 188.882 118.577 188.994 114.911 188.994H113.857C113.468 188.938 112.69 188.772 112.634 188.271L111.912 174.11C112.023 169.446 111.8 164.78 111.8 160.058Z" fill="white"/>
<path d="M131.858 184.718C131.858 180.275 132.08 175.833 132.08 171.389C132.08 165.225 131.58 159.06 131.58 152.84C131.58 152.562 131.636 151.729 131.636 151.673L131.748 151.451C131.804 151.395 132.636 151.285 132.97 151.285C135.359 151.175 136.969 151.175 139.246 151.175H140.857L140.969 151.285C140.969 151.341 141.247 153.452 141.303 154.284C141.413 155.729 141.857 162.448 141.913 163.892L142.135 164.947L142.247 165.059C142.247 165.059 142.303 165.114 142.357 165.114C142.579 165.114 143.08 164.282 143.246 164.114C145.023 161.505 147.077 157.56 147.077 154.339C147.077 153.506 146.911 152.674 146.911 151.896V151.673L147.189 151.507H156.963C157.297 151.507 157.352 151.896 157.352 152.118C157.352 157.56 153.186 165.447 149.521 169.112V169.334C157.129 172.389 158.296 179.831 159.24 186.163C159.296 186.439 159.296 186.717 159.35 186.995C159.461 187.828 158.35 188.55 157.684 188.828C156.518 188.828 151.353 188.94 150.241 188.994H148.52C148.354 188.938 148.242 188.772 148.242 188.606C147.242 184.108 147.02 176.333 143.355 173.166C143.243 173.11 142.91 172.944 142.854 172.944L142.744 173.11V176.886C142.744 179.995 142.854 183.44 142.244 186.604C141.466 188.271 139.411 188.382 137.69 188.493C137.58 188.493 135.357 188.605 134.469 188.605H134.135C132.969 188.605 132.08 188.327 131.858 187.05V184.717V184.718Z" fill="white"/>
<g opacity="0.25">
<path d="M245.838 169.673L243.08 176.877L241.065 186.576L236.055 205.557C218.101 197.398 206.265 186.499 207.189 178.23C207.24 177.711 207.35 177.198 207.51 176.697C210.153 168.518 226.068 166.004 245.838 169.673Z" fill="white"/>
</g>
<g opacity="0.25">
<path d="M303.256 207.661C303.057 208.276 302.781 208.86 302.435 209.405L302.429 209.412C299.657 213.838 292.287 216.179 282.408 216.32L282.415 216.314C282.415 216.314 287.431 201.092 300.337 196.954C304.866 195.505 304.289 204.46 303.256 207.661Z" fill="white"/>
</g>
<path d="M318.18 192.175C311.419 192.72 305.505 194.503 300.476 197.153C300.469 197.153 300.463 197.159 300.456 197.159C280.122 207.878 274.374 232.799 286.581 247.874L252.936 329.527C241.075 345.019 177.537 325.454 179.737 308.609L195.723 232.588C219.124 232.357 235.174 219.874 240.774 189.943C241.691 174.316 248.76 161.16 258.844 152.25C274.38 138.509 297.076 134.827 315.518 147.663C321.728 151.98 326.635 157.984 329.444 165.002C335.776 180.782 327.943 190.661 318.18 192.175Z" fill="#F2DAC4"/>
<path d="M235.595 337.411C234.096 337.411 232.631 337.353 231.24 337.258C221.464 336.596 210.116 333.847 200.107 329.712C193.366 326.928 187.749 323.709 183.862 320.403C179.129 316.377 176.994 312.31 177.516 308.315C177.524 308.257 177.533 308.201 177.546 308.144L193.533 232.124C193.75 231.093 194.654 230.351 195.707 230.341C219.415 230.11 233.429 216.803 238.546 189.667C239.183 179.28 242.525 169.359 248.217 160.967C253.622 152.997 260.954 146.612 269.42 142.5C276.91 138.863 285.065 137.158 293.006 137.567C301.563 138.009 309.57 140.786 316.805 145.821C323.494 150.476 328.587 156.819 331.534 164.165C333.219 168.365 334.04 172.388 333.974 176.124C333.913 179.639 333.079 182.834 331.493 185.618C328.808 190.332 324.083 193.532 318.528 194.394C318.474 194.403 318.419 194.41 318.364 194.413C302.986 195.657 290.561 203.975 285.126 216.666C280.662 227.091 281.889 238.506 288.331 246.456C288.848 247.095 288.975 247.965 288.662 248.724L255.014 330.38C254.94 330.562 254.841 330.733 254.722 330.89C250.761 336.064 242.798 337.408 235.595 337.408V337.411ZM181.959 308.974C181.413 313.846 189.19 320.345 201.819 325.561C211.398 329.518 222.231 332.148 231.541 332.778C236.404 333.106 240.584 332.873 243.962 332.081C247.215 331.319 249.574 330.075 250.982 328.378L284.014 248.216C277.245 239.04 276.069 226.408 280.996 214.9C283.838 208.264 288.512 202.486 294.514 198.19C301.132 193.453 309.006 190.679 317.914 189.945C322.075 189.277 325.598 186.893 327.589 183.396C329.414 180.191 330.857 174.543 327.365 165.836C324.746 159.306 320.207 153.658 314.238 149.505C301.447 140.604 285.825 139.524 271.379 146.538C254.996 154.493 244.13 171.174 243.017 190.072C243.012 190.167 243.001 190.261 242.983 190.353C241.569 197.907 239.448 204.581 236.677 210.192C233.942 215.731 230.493 220.4 226.428 224.068C222.458 227.65 217.796 230.372 212.574 232.158C208.062 233.701 203.019 234.584 197.557 234.787L181.957 308.972L181.959 308.974Z" fill="#592641"/>
<path d="M341.457 213.239C337.831 213.238 337.015 209.166 334.559 204.821C333.039 202.132 328.756 198.629 328.756 198.629C328.756 198.629 335.873 196.453 342.041 200.86C347.42 204.704 347.829 213.241 341.457 213.239Z" fill="#F2DAC4"/>
<g opacity="0.2">
<path d="M341.458 213.242C337.833 213.242 337.015 209.168 334.56 204.823C333.04 202.134 328.756 198.631 328.756 198.631C328.756 198.631 331.09 197.916 334.246 198.136C334.789 198.776 335.271 199.426 335.612 200.03C338.067 204.374 338.886 208.448 342.51 208.448C344.091 208.448 345.255 207.924 346.032 207.073C346.607 210.286 345.204 213.242 341.458 213.242Z" fill="#592641"/>
</g>
<path d="M341.46 214.643H341.457C337.82 214.642 336.374 211.639 334.843 208.462C334.382 207.505 333.905 206.516 333.338 205.512C332.2 203.498 329.004 200.645 327.868 199.715C327.468 199.388 327.28 198.866 327.38 198.358C327.48 197.85 327.851 197.439 328.346 197.288C328.664 197.191 336.202 194.965 342.857 199.72C344.644 200.997 346.065 202.829 346.862 204.88C347.647 206.903 347.775 208.964 347.222 210.686C346.416 213.2 344.315 214.643 341.459 214.643H341.46ZM341.458 211.837H341.46C343.084 211.837 344.124 211.161 344.551 209.829C345.235 207.697 344.158 204.098 341.226 202.003C338.934 200.365 336.225 199.522 333.174 199.497C332.716 199.493 332.283 199.509 331.884 199.537C333.254 200.841 334.906 202.582 335.781 204.131C336.394 205.215 336.913 206.293 337.371 207.244C338.866 210.346 339.664 211.837 341.459 211.837L341.458 211.837Z" fill="#592641"/>
<g opacity="0.2">
<path d="M288.83 201.579C274.699 213.158 271.171 232.755 280.26 246.053C281.094 247.271 281.216 248.843 280.652 250.209L247.968 329.528C245.249 333.075 239.822 334.788 233.086 335.108C210.353 334.153 178.163 320.682 179.741 308.609L195.727 232.588C219.128 232.357 235.178 219.874 240.778 189.943C241.419 179.038 245.05 169.339 250.618 161.442C253.03 158.023 255.801 154.944 258.848 152.25C244.78 187.082 257.565 199.751 276.642 200.707H276.655C280.312 200.893 284.192 200.649 288.157 200.046C289.036 199.911 289.51 201.015 288.83 201.579Z" fill="#592641"/>
</g>
<path d="M281.466 218.569C271.736 218.569 260.191 216.556 248.709 212.843C236.353 208.846 225.119 203.222 217.077 197.01C213.068 193.913 209.988 190.783 207.919 187.704C205.629 184.294 204.638 181.026 204.971 177.993C205.038 177.33 205.178 176.663 205.387 176.011C206.942 171.201 211.952 167.925 219.878 166.531C227.051 165.27 236.174 165.593 246.262 167.468L245.442 171.883C236.013 170.131 227.211 169.8 220.655 170.954C214.56 172.025 210.656 174.31 209.66 177.388C209.548 177.738 209.473 178.097 209.437 178.451C209.437 178.46 209.436 178.47 209.435 178.479C208.557 186.341 223.851 200.082 250.091 208.572C261.816 212.366 273.556 214.313 283.149 214.058C292.017 213.822 298.351 211.694 300.528 208.221C300.544 208.194 300.562 208.167 300.58 208.141C300.809 207.772 300.99 207.379 301.122 206.972C302.089 203.982 300.249 200.604 298.537 198.297L302.142 195.621C305.5 200.145 306.626 204.548 305.395 208.354C305.14 209.144 304.783 209.904 304.333 210.612C304.316 210.638 304.3 210.663 304.282 210.689C302.674 213.204 299.923 215.158 296.107 216.498C292.611 217.726 288.291 218.416 283.269 218.55C282.675 218.565 282.074 218.573 281.466 218.573V218.569Z" fill="#592641"/>
<path d="M235.093 337.453C228.167 337.453 220.195 336.281 212.247 334.069C202.136 331.257 193.028 327.068 186.596 322.274C179.623 317.075 176.49 311.601 177.764 306.849L205.006 177.765C205.254 176.594 206.378 175.821 207.559 176.012C208.742 176.202 209.567 177.288 209.434 178.478C208.556 186.34 223.85 200.082 250.09 208.571C261.817 212.365 273.557 214.314 283.148 214.057C292.016 213.821 298.35 211.692 300.527 208.22C301.147 207.232 302.419 206.881 303.457 207.415C304.494 207.949 304.951 209.188 304.505 210.267L255.907 328.211C255.892 328.258 255.874 328.306 255.855 328.352L255.014 330.386C254.963 330.51 254.9 330.629 254.828 330.742C252.375 334.558 246.744 336.844 238.546 337.352C237.429 337.421 236.276 337.456 235.091 337.456L235.093 337.453ZM207.602 187.218L182.146 307.839C182.135 307.885 182.125 307.931 182.112 307.978C181.34 310.751 184.02 314.75 189.281 318.674C195.278 323.145 203.862 327.077 213.452 329.743C222.29 332.202 231.104 333.312 238.271 332.868C244.661 332.472 249.262 330.871 250.953 328.462L251.656 326.761C251.671 326.715 251.689 326.669 251.707 326.624L297.267 216.053C296.892 216.206 296.506 216.352 296.108 216.492C292.612 217.72 288.293 218.41 283.271 218.543C273.181 218.813 260.91 216.787 248.711 212.841C236.355 208.843 225.12 203.22 217.079 197.008C213.07 193.911 209.989 190.78 207.921 187.701C207.812 187.54 207.707 187.377 207.603 187.216L207.602 187.218Z" fill="#592641"/>
<g opacity="0.25">
<path d="M302.432 209.413L260.627 310.874L253.783 327.482V327.495L252.942 329.528C248.785 335.994 231.709 337.156 212.85 331.908C192.483 326.244 177.755 315.262 179.949 307.378L206.743 180.411L207.205 178.23C207.09 179.25 207.173 180.302 207.43 181.393C208.276 184.915 211.015 188.751 215.236 192.555C222.742 199.335 234.917 206.026 249.401 210.708C274.246 218.746 297.037 218.021 302.432 209.413Z" fill="white"/>
</g>
<path d="M235.093 337.453C228.167 337.453 220.195 336.281 212.247 334.069C202.136 331.257 193.028 327.068 186.596 322.274C179.623 317.075 176.49 311.601 177.764 306.849L205.006 177.765C205.254 176.594 206.378 175.821 207.559 176.012C208.742 176.202 209.567 177.288 209.434 178.478C208.556 186.34 223.85 200.082 250.09 208.571C261.817 212.365 273.557 214.314 283.148 214.057C292.016 213.821 298.35 211.692 300.527 208.22C301.147 207.232 302.419 206.881 303.457 207.415C304.494 207.949 304.951 209.188 304.505 210.267L255.907 328.211C255.892 328.258 255.874 328.306 255.855 328.352L255.014 330.386C254.963 330.51 254.9 330.629 254.828 330.742C252.375 334.558 246.744 336.844 238.546 337.352C237.429 337.421 236.276 337.456 235.091 337.456L235.093 337.453ZM207.602 187.218L182.146 307.839C182.135 307.885 182.125 307.931 182.112 307.978C181.34 310.751 184.02 314.75 189.281 318.674C195.278 323.145 203.862 327.077 213.452 329.743C222.29 332.202 231.104 333.312 238.271 332.868C244.661 332.472 249.262 330.871 250.953 328.462L251.656 326.761C251.671 326.715 251.689 326.669 251.707 326.624L297.267 216.053C296.892 216.206 296.506 216.352 296.108 216.492C292.612 217.72 288.293 218.41 283.271 218.543C273.181 218.813 260.91 216.787 248.711 212.841C236.355 208.843 225.12 203.22 217.079 197.008C213.07 193.911 209.989 190.78 207.921 187.701C207.812 187.54 207.707 187.377 207.603 187.216L207.602 187.218Z" fill="#592641"/>
<g opacity="0.2">
<path d="M260.623 310.873L253.779 327.481V327.494L252.938 329.527C248.782 335.993 231.705 337.154 212.846 331.907C192.479 326.243 177.751 315.261 179.945 307.377L206.739 180.41L207.426 181.392L215.232 192.553C198.105 273.142 197.586 332.548 260.623 310.873Z" fill="#592641"/>
</g>
<path d="M236.015 279.999C233.211 279.6 231.006 277.498 229.551 273.893C228.308 270.819 227.865 267.144 228.343 263.528C228.513 262.586 229.294 261.875 230.345 262.024L246.652 264.057C247.113 264.087 247.504 264.357 247.804 264.758C248.105 265.158 248.185 265.599 248.156 266.06C247.309 273.271 241.955 280.736 236.125 279.979L236.015 279.999ZM231.73 265.869C231.711 268.263 232.043 270.707 232.866 272.719C233.729 274.952 235.132 276.404 236.534 276.603C239.449 276.982 243.082 272.563 244.311 267.444L231.73 265.869Z" fill="#592641"/>
<path d="M222.896 259.284C223.754 254.006 221.397 249.2 217.761 248.611C214.125 248.022 210.392 251.89 209.534 257.169C208.675 262.448 211.032 267.254 214.668 267.843C218.304 268.431 222.038 264.563 222.896 259.284Z" fill="#592641"/>
<path d="M217.256 256.445C217.575 254.452 216.813 252.77 215.521 252.55C214.229 252.331 212.908 253.824 212.678 255.687C212.359 257.68 213.121 259.362 214.414 259.582C215.706 259.801 217.027 258.308 217.256 256.445Z" fill="white"/>
<path d="M214.386 260.04C212.853 259.75 211.941 257.868 212.35 255.744C212.5 254.693 212.91 253.821 213.47 253.15C214.031 252.478 214.762 252.117 215.573 252.197C217.105 252.486 218.018 254.369 217.609 256.492C217.459 257.544 217.049 258.416 216.489 259.087C215.928 259.758 215.197 260.119 214.386 260.04ZM215.363 252.918C214.902 252.888 214.372 253.099 213.901 253.64C213.431 254.181 213.001 254.943 212.941 255.864C212.692 257.617 213.324 259.209 214.375 259.359C214.856 259.499 215.367 259.178 215.857 258.747C216.328 258.206 216.758 257.444 216.817 256.523C217.067 254.77 216.435 253.178 215.383 253.028L215.363 252.918Z" fill="#592641"/>
<path d="M230.115 263.887C229.258 270.418 231.856 277.798 236.284 278.356C240.821 278.894 245.565 272.451 246.422 265.92L230.115 263.887Z" fill="#592641"/>
<path d="M230.653 271.871C232.385 270.758 234.658 270.116 237.002 270.485C239.677 270.794 241.871 272.215 243.224 274.017C241.333 276.752 238.71 278.597 236.256 278.248C233.581 277.939 231.717 275.206 230.633 271.761L230.653 271.871Z" fill="#ED2E7A"/>
<path d="M266.974 265.697C267.832 260.419 265.475 255.613 261.839 255.024C258.203 254.435 254.47 258.304 253.612 263.582C252.754 268.861 255.11 273.667 258.746 274.256C262.382 274.845 266.116 270.976 266.974 265.697Z" fill="#592641"/>
<path d="M261.342 262.856C261.661 260.863 260.899 259.181 259.607 258.961C258.315 258.742 256.994 260.235 256.764 262.098C256.445 264.091 257.207 265.773 258.499 265.993C259.792 266.212 261.113 264.719 261.342 262.856Z" fill="white"/>
<path d="M258.441 266.342C256.909 266.053 255.996 264.17 256.405 262.047C256.555 260.995 256.965 260.123 257.526 259.452C258.196 258.761 258.927 258.4 259.648 258.609C261.161 258.789 262.093 260.781 261.684 262.905C261.385 265.008 259.954 266.522 258.441 266.342ZM259.418 259.22C258.958 259.191 258.427 259.401 257.956 259.943C257.486 260.484 257.056 261.245 256.996 262.167C256.747 263.919 257.379 265.512 258.431 265.661C259.482 265.811 260.603 264.468 260.853 262.715C261.102 260.962 260.47 259.37 259.418 259.22Z" fill="#592641"/>
</g>
<defs>
<clipPath id="clip0_5967_503463">
<rect width="357" height="357" fill="white"/>
</clipPath>
</defs>
</svg>
