<svg width="357" height="357" viewBox="0 0 357 357" fill="none" xmlns="http://www.w3.org/2000/svg">
<g clip-path="url(#clip0_5700_68661)">
<g opacity="0.3">
<path d="M107.467 326.825C122.356 322.121 170.884 310.178 185.242 301.624C185.074 291.174 149.96 283.228 106.779 283.92C63.5991 284.612 28.7573 293.678 28.9247 304.127C29.0921 314.577 64.2863 327.517 107.467 326.825Z" fill="#C7C7C7"/>
</g>
<path d="M119.541 167.752L31.3733 186.061C29.0559 186.542 27.3945 188.585 27.3945 190.953V285.754C27.3945 288.025 28.9249 290.009 31.1193 290.586L126.53 315.661L219.348 288.217L220.715 192.803C220.75 190.406 219.078 188.323 216.733 187.838L119.541 167.752Z" fill="#86D3F9" stroke="#592641" stroke-width="4.45959" stroke-miterlimit="10"/>
<path d="M130.291 211.526L125.619 307.969L123.836 211.526H130.291Z" fill="#592641"/>
<path opacity="0.6" d="M120.27 174.259L130.501 172.29L217.786 190.19L120.27 174.259Z" fill="white"/>
<path opacity="0.6" d="M119.556 169.946L30.9609 188.409L41.1681 190.8L130.886 172.293L119.556 169.946Z" fill="white"/>
<path d="M75.2874 257.935C73.487 257.544 72.4076 256.569 71.7944 255.747C69.6107 252.823 70.5448 248.403 70.6589 247.909C70.8701 246.992 71.7766 246.428 72.6982 246.632C73.6127 246.842 74.184 247.755 73.9745 248.67C73.7669 249.595 73.462 252.301 74.5236 253.715C74.8106 254.097 75.3454 254.616 76.66 254.695C79.1904 254.85 80.3054 250.195 80.3161 250.148C80.5211 249.234 81.424 248.656 82.3376 248.854L82.3456 248.856C83.261 249.06 83.8403 249.964 83.6398 250.881C83.0257 253.686 80.8206 258.361 76.4523 258.093C76.0343 258.068 75.6466 258.013 75.2874 257.935Z" fill="#592641"/>
<path d="M48.467 246.626C47.663 246.451 47.0828 245.713 47.1318 244.865C47.1862 243.926 47.9901 243.208 48.9278 243.263L58.6706 243.823L51.6694 237.065C50.9929 236.412 50.9742 235.335 51.6266 234.657C52.2791 233.981 53.3566 233.963 54.0322 234.613L61.6841 241.999C62.6173 242.9 62.8838 244.249 62.365 245.438C61.8454 246.627 60.6733 247.348 59.3792 247.273L48.7335 246.661C48.6425 246.656 48.5543 246.643 48.4679 246.624L48.467 246.626Z" fill="#592641"/>
<path d="M104.053 258.529C103.952 258.508 103.853 258.477 103.754 258.436L93.9199 254.31C92.7247 253.807 91.9867 252.646 92.042 251.35C92.0963 250.054 92.9279 248.958 94.1615 248.559L104.276 245.282C105.17 244.995 106.129 245.483 106.419 246.378C106.707 247.272 106.218 248.232 105.324 248.521L96.0698 251.519L105.07 255.294C105.936 255.658 106.345 256.656 105.981 257.522C105.658 258.291 104.839 258.699 104.053 258.528V258.529Z" fill="#592641"/>
<path d="M99.7221 305.789C98.9458 309.812 93.6568 312.241 87.9088 311.213C82.1608 310.184 78.1312 306.089 78.9085 302.066C79.6848 298.043 84.9746 295.614 90.7218 296.642C96.4698 297.671 100.499 301.765 99.7221 305.789Z" fill="#86D3F9"/>
<path d="M90.5199 311.809C89.6491 311.809 88.7534 311.731 87.8469 311.57C84.3646 310.947 81.3137 309.16 79.6871 306.787C78.638 305.258 78.2467 303.603 78.556 302C79.3689 297.79 84.8557 295.231 90.7864 296.29C94.2687 296.913 97.3197 298.7 98.9463 301.073C99.9954 302.601 100.387 304.257 100.077 305.86C99.3893 309.425 95.3463 311.81 90.5199 311.81V311.809ZM88.0929 296.769C83.615 296.769 79.8858 298.912 79.2637 302.137C78.9918 303.545 79.3439 305.012 80.2816 306.379C81.8012 308.594 84.6774 310.269 87.9744 310.859C93.5192 311.849 98.6317 309.547 99.3705 305.722C99.6424 304.314 99.2903 302.847 98.3527 301.48C96.833 299.265 93.9568 297.59 90.6599 297C89.7882 296.844 88.9272 296.77 88.0929 296.77V296.769Z" fill="#592641"/>
<path d="M90.5926 313.26C89.6175 313.26 88.6121 313.173 87.5907 312.99C83.7367 312.302 80.3364 310.288 78.4958 307.605C77.224 305.75 76.7533 303.718 77.1384 301.727C78.1161 296.663 84.2242 293.649 91.0382 294.871C94.8922 295.56 98.2925 297.573 100.133 300.256C101.405 302.112 101.876 304.143 101.491 306.134C100.659 310.439 96.1222 313.26 90.5935 313.26H90.5926ZM88.1157 298.217C84.3454 298.217 81.1608 299.904 80.676 302.412C80.4273 303.702 80.9683 304.838 81.4665 305.564C82.7732 307.468 85.2991 308.918 88.2244 309.441C92.9171 310.281 97.3718 308.454 97.9512 305.451C98.1998 304.161 97.6588 303.025 97.1606 302.299C95.8539 300.395 93.328 298.945 90.4027 298.422C89.6282 298.283 88.8599 298.217 88.1148 298.217L88.1157 298.217Z" fill="#592641"/>
<path d="M61.8354 297.943C61.0591 301.966 55.7701 304.395 50.0221 303.366C44.2741 302.338 40.2445 298.243 41.0217 294.22C41.7981 290.196 47.0879 287.768 52.835 288.796C58.583 289.824 62.6126 293.919 61.8354 297.943Z" fill="#86D3F9"/>
<path d="M52.6332 303.961C51.7624 303.961 50.8667 303.883 49.9602 303.722C46.4779 303.099 43.427 301.312 41.8003 298.939C40.7513 297.41 40.36 295.755 40.6693 294.152C41.4821 289.942 46.969 287.383 52.8997 288.442C56.382 289.065 59.4329 290.852 61.0596 293.225C62.1086 294.753 62.4999 296.409 62.1906 298.011C61.5025 301.577 57.4596 303.961 52.6332 303.961V303.961ZM50.2062 288.921C45.7283 288.921 41.9991 291.064 41.377 294.289C41.1051 295.697 41.4572 297.164 42.3948 298.531C43.9145 300.746 46.7907 302.421 50.0877 303.011C55.6324 304.001 60.7449 301.699 61.4838 297.874C61.7557 296.466 61.4036 294.999 60.466 293.632C58.9463 291.417 56.0701 289.742 52.7731 289.152C51.9015 288.996 51.0405 288.922 50.2062 288.922V288.921Z" fill="#592641"/>
<path d="M52.7176 305.411C51.7425 305.411 50.7371 305.324 49.7157 305.141C45.8617 304.453 42.4614 302.439 40.6208 299.756C39.349 297.901 38.8783 295.869 39.2634 293.878C40.2411 288.814 46.3492 285.8 53.1632 287.022C57.0172 287.71 60.4175 289.724 62.2581 292.407C63.53 294.262 64.0006 296.294 63.6155 298.285C62.7839 302.59 58.2472 305.411 52.7185 305.411H52.7176ZM50.2407 290.367C46.4704 290.367 43.2858 292.055 42.801 294.563C42.5523 295.853 43.0933 296.989 43.5915 297.715C44.8982 299.619 47.4241 301.069 50.3494 301.592C55.0421 302.432 59.4968 300.605 60.0762 297.602C60.3248 296.312 59.7838 295.176 59.2856 294.45C57.9789 292.545 55.453 291.096 52.5277 290.573C51.7532 290.433 50.9849 290.368 50.2398 290.368L50.2407 290.367Z" fill="#592641"/>
<path d="M217.58 287.089L126.55 313.321L125.48 312.964L127.575 262.927L129.341 211.328L204.907 193.531C212.404 192.057 219.358 197.858 219.257 205.503L217.58 287.089Z" fill="#69A3C0"/>
<path d="M33.3648 188.95C51.1713 191.925 68.9705 195.425 86.6522 199.037C100.422 201.858 114.165 204.807 127.885 207.856L127.145 207.853C149.25 203.299 171.249 195.618 193.325 191.846C197.354 191.167 200.887 194.035 204.926 193.42C172.887 201.074 155.469 204.663 127.885 213.157C96.3727 206.297 64.5042 197.361 33.3631 188.95H33.3648Z" fill="#592641"/>
<path d="M142.37 99.0467L79.419 112.119C77.7644 112.462 76.5781 113.921 76.5781 115.612V183.3C76.5781 184.921 77.6708 186.338 79.2376 186.75L147.36 204.653L213.632 185.059L214.609 116.933C214.633 115.221 213.44 113.734 211.765 113.388L142.37 99.0467Z" fill="#86D3F9" stroke="#592641" stroke-width="3.18414" stroke-miterlimit="10"/>
<path d="M150.05 130.303L146.714 199.162L145.441 130.303H150.05Z" fill="#592641"/>
<path opacity="0.6" d="M142.879 103.693L150.184 102.287L212.505 115.068L142.879 103.693Z" fill="white"/>
<path opacity="0.6" d="M142.374 100.613L79.1172 113.795L86.4051 115.502L150.464 102.288L142.374 100.613Z" fill="white"/>
<path d="M110.793 163.438C109.508 163.159 108.737 162.463 108.299 161.876C106.74 159.788 107.407 156.633 107.488 156.28C107.639 155.625 108.286 155.223 108.944 155.368C109.597 155.518 110.005 156.17 109.856 156.823C109.707 157.483 109.49 159.415 110.248 160.425C110.453 160.698 110.835 161.069 111.773 161.125C113.58 161.235 114.376 157.912 114.384 157.878C114.53 157.226 115.175 156.813 115.827 156.955L115.833 156.956C116.486 157.101 116.9 157.747 116.757 158.402C116.318 160.404 114.744 163.742 111.625 163.551C111.326 163.533 111.05 163.494 110.793 163.438Z" fill="#592641"/>
<path d="M91.6429 155.366C91.0688 155.241 90.6546 154.714 90.6896 154.108C90.7284 153.438 91.3024 152.926 91.9719 152.965L98.9282 153.365L93.9294 148.539C93.4464 148.073 93.433 147.304 93.8989 146.82C94.3647 146.337 95.1341 146.324 95.6165 146.789L101.08 152.062C101.746 152.705 101.936 153.669 101.566 154.518C101.195 155.367 100.358 155.881 99.4342 155.828L91.8332 155.391C91.7682 155.387 91.7052 155.378 91.6435 155.365L91.6429 155.366Z" fill="#592641"/>
<path d="M131.332 163.865C131.26 163.85 131.189 163.828 131.118 163.798L124.097 160.852C123.243 160.494 122.717 159.665 122.756 158.739C122.795 157.814 123.389 157.031 124.269 156.746L131.491 154.406C132.129 154.202 132.814 154.55 133.021 155.189C133.227 155.828 132.878 156.513 132.239 156.719L125.632 158.86L132.058 161.555C132.677 161.815 132.968 162.528 132.708 163.146C132.478 163.695 131.893 163.986 131.332 163.865V163.865Z" fill="#592641"/>
<path d="M128.218 197.607C127.664 200.479 123.888 202.213 119.784 201.479C115.68 200.745 112.803 197.821 113.358 194.949C113.912 192.076 117.689 190.342 121.792 191.076C125.896 191.81 128.773 194.734 128.218 197.607Z" fill="#86D3F9"/>
<path d="M121.647 201.906C121.025 201.906 120.386 201.85 119.738 201.735C117.252 201.291 115.074 200.014 113.912 198.32C113.163 197.229 112.884 196.047 113.105 194.903C113.685 191.897 117.603 190.07 121.837 190.826C124.324 191.27 126.502 192.546 127.663 194.24C128.412 195.332 128.692 196.514 128.471 197.658C127.98 200.204 125.093 201.906 121.647 201.906V201.906ZM119.914 191.168C116.717 191.168 114.054 192.698 113.61 195C113.416 196.006 113.667 197.053 114.337 198.029C115.422 199.611 117.475 200.807 119.829 201.228C123.788 201.934 127.439 200.291 127.966 197.56C128.16 196.555 127.909 195.507 127.24 194.531C126.154 192.949 124.101 191.754 121.747 191.333C121.124 191.221 120.51 191.168 119.914 191.168V191.168Z" fill="#592641"/>
<path d="M121.707 202.941C121.011 202.941 120.293 202.879 119.564 202.748C116.812 202.257 114.384 200.819 113.07 198.903C112.162 197.579 111.826 196.128 112.101 194.706C112.799 191.091 117.16 188.939 122.026 189.811C124.777 190.303 127.205 191.741 128.519 193.656C129.427 194.981 129.763 196.432 129.488 197.853C128.895 200.927 125.655 202.941 121.708 202.941H121.707ZM119.939 192.2C117.247 192.2 114.973 193.405 114.627 195.196C114.449 196.116 114.836 196.928 115.191 197.446C116.124 198.806 117.928 199.841 120.016 200.214C123.367 200.814 126.548 199.509 126.961 197.365C127.139 196.444 126.753 195.633 126.397 195.115C125.464 193.755 123.66 192.72 121.572 192.346C121.019 192.247 120.47 192.201 119.938 192.201L119.939 192.2Z" fill="#592641"/>
<path d="M101.168 192.003C100.613 194.876 96.8371 196.61 92.733 195.876C88.629 195.141 85.7519 192.218 86.3068 189.345C86.8611 186.472 90.638 184.738 94.7415 185.472C98.8455 186.207 101.723 189.13 101.168 192.003Z" fill="#86D3F9"/>
<path d="M94.5961 196.299C93.9744 196.299 93.3348 196.243 92.6876 196.128C90.2013 195.684 88.0229 194.408 86.8615 192.714C86.1125 191.622 85.8331 190.44 86.0539 189.296C86.6343 186.29 90.5519 184.463 94.7864 185.219C97.2728 185.663 99.4511 186.939 100.613 188.633C101.362 189.725 101.641 190.907 101.42 192.051C100.929 194.597 98.0422 196.3 94.5961 196.3V196.299ZM92.8633 185.561C89.6661 185.561 87.0034 187.091 86.5592 189.393C86.3651 190.399 86.6165 191.446 87.286 192.422C88.371 194.004 90.4246 195.2 92.7786 195.621C96.7376 196.328 100.388 194.684 100.915 191.953C101.11 190.948 100.858 189.9 100.189 188.924C99.1037 187.343 97.0501 186.147 94.6961 185.726C94.0737 185.614 93.4589 185.561 92.8633 185.561V185.561Z" fill="#592641"/>
<path d="M94.6565 197.336C93.9603 197.336 93.2425 197.274 92.5132 197.143C89.7614 196.652 87.3336 195.214 86.0195 193.298C85.1114 191.974 84.7753 190.523 85.0503 189.102C85.7484 185.486 90.1095 183.334 94.9747 184.206C97.7265 184.698 100.154 186.136 101.468 188.051C102.377 189.376 102.713 190.827 102.438 192.248C101.844 195.322 98.6047 197.336 94.6572 197.336H94.6565ZM92.888 186.595C90.1961 186.595 87.9223 187.8 87.5761 189.591C87.3985 190.511 87.7848 191.323 88.1406 191.841C89.0735 193.201 90.877 194.236 92.9657 194.609C96.3162 195.209 99.4969 193.904 99.9105 191.76C100.088 190.839 99.7018 190.028 99.3461 189.51C98.4131 188.15 96.6096 187.115 94.521 186.741C93.968 186.642 93.4194 186.596 92.8874 186.596L92.888 186.595Z" fill="#592641"/>
<path d="M212.376 184.254L147.381 202.984L146.617 202.729L148.113 167.003L150.022 131.054L203.328 117.454C208.68 116.402 213.645 120.544 213.573 126.003L212.376 184.254V184.254Z" fill="#69A3C0"/>
<path d="M80.8411 114.184C93.5549 116.309 106.264 118.808 118.888 121.387C128.72 123.401 138.532 125.507 148.328 127.684L147.8 127.681C154.338 126.334 161.988 124.814 168.568 123.54C174.202 122.459 180.279 121.318 185.921 120.312C188.705 119.81 191.83 119.269 194.618 118.792C197.495 118.307 200.451 117.816 203.336 117.376C200.517 118.13 197.887 120.115 195.052 120.823C192.9 121.356 190.346 121.981 188.191 122.501C179.844 124.513 170.799 126.573 162.388 128.431C157.97 129.401 152.752 130.533 148.328 131.469C125.829 126.571 103.075 120.19 80.8398 114.184H80.8411Z" fill="#592641"/>
<g opacity="0.3">
<path d="M252.666 327.528C294.387 328.21 328.325 319.342 328.498 307.767C328.671 296.192 295.016 286.218 253.295 285.536C211.573 284.853 177.636 293.721 177.463 305.296C177.29 316.871 210.945 326.845 252.666 327.528Z" fill="#C7C7C7"/>
</g>
<path d="M261.155 120.878C261.155 120.878 234.668 115.08 216.754 111.936C198.341 108.704 162.158 105.066 164.417 123.173C166.675 141.281 239.608 145.178 239.608 145.178L261.155 120.878Z" fill="#DAC4B0"/>
<path d="M251.556 125.202L255.201 122.288C255.201 122.288 234.433 110.95 217.762 107.368C201.391 103.85 166.539 103.628 165.63 120.59C176.781 103.032 231.948 113.623 251.556 125.202Z" fill="#FAF0E7"/>
<path d="M302.797 293.578L308.795 113.743C308.795 113.743 291.865 101.682 275.2 107.155C258.534 112.628 233.828 131.85 199.657 132.747C187.936 133.055 172.667 128.514 166.851 123.103L163.248 122.909L179.497 296.997C179.51 303.691 214.582 310.785 244.283 310.114C273.984 309.445 302.867 300.914 302.853 294.221L302.797 293.578Z" fill="#DAC4B0"/>
<path d="M162.569 122.569C162.569 122.569 196.344 143.794 226.082 131.55C255.82 119.306 287.002 86.2489 311.033 116.908" stroke="#592641" stroke-width="3.57449"/>
<path d="M226.126 314.562C215.142 313.973 204.763 312.51 195.939 310.268C182.394 306.825 175.464 302.413 175.338 297.148L154.993 55.8994C154.956 55.6252 154.936 55.3778 154.931 55.136L154.929 55.0274C154.913 48.8652 162.891 43.9165 179.322 39.9027C194.098 36.2927 213.722 34.0563 234.58 33.6055C255.438 33.153 275.072 34.5422 289.865 37.5142C306.315 40.8182 314.319 45.4208 314.335 51.5829L314.334 51.6785L306.905 294.227C306.875 299.541 300.175 304.274 286.991 308.297C274.4 312.138 258.342 314.45 241.774 314.809C236.491 314.923 231.242 314.839 226.125 314.564L226.126 314.562ZM159.125 54.9172L159.124 54.9462C159.126 55.0015 159.135 55.0538 159.143 55.1093L159.162 55.2789L179.53 296.814L179.531 296.929C179.535 298.297 183.784 302.199 196.899 305.531C209.342 308.693 225.695 310.308 241.762 309.96C258.003 309.608 273.707 307.352 285.981 303.608C299.646 299.439 302.713 295.365 302.711 294.266L302.711 294.172L310.607 51.4784C310.808 47.7415 306.201 44.7371 289.656 41.4134C275.116 38.4923 254.991 36.7144 234.389 37.1595C213.789 37.6047 194.675 39.6912 180.152 43.2402C163.588 47.2874 159.151 53.123 159.124 54.9187L159.125 54.9172Z" fill="#592641"/>
<path d="M312.614 52.5484C312.623 54.2738 311.173 56.476 307.235 58.8908C303.421 61.2299 297.785 63.4394 290.684 65.3468C276.507 69.1546 256.871 71.658 235.272 71.7706C213.663 71.8832 194.147 69.7728 180.08 66.3009C173.033 64.5616 167.453 62.5047 163.676 60.2775C159.783 57.9823 158.345 55.8425 158.336 54.1168C158.327 52.3911 159.742 50.2364 163.611 47.9008C167.366 45.6343 172.923 43.5194 179.952 41.7067C193.982 38.0884 213.474 35.7747 235.084 35.6621C249.386 35.5876 263.359 36.1835 275.45 37.5063C287.578 38.8332 297.679 40.8782 304.316 43.6403C310.964 46.4066 312.599 49.7935 312.614 52.5484Z" stroke="#592641" stroke-width="3.57449"/>
<path d="M163.954 123.374C162.68 101.849 224.574 102.74 249.14 120.251" stroke="#592641" stroke-width="3.57449"/>
<g style="mix-blend-mode:overlay" opacity="0.25">
<path d="M171.276 127.918C165.775 126.224 164.871 125.709 164.871 125.709L179.372 298.55L210.859 310.965C210.859 310.965 162.778 164.765 171.276 127.918Z" fill="#FAFAFA"/>
</g>
<g style="mix-blend-mode:multiply" opacity="0.25">
<path d="M242.369 306.565C275.249 305.609 301.722 298.602 301.499 290.914C301.276 283.226 274.441 277.768 241.561 278.723C208.682 279.678 182.208 286.685 182.431 294.374C182.654 302.062 209.489 307.52 242.369 306.565Z" fill="#A55F50"/>
</g>
<path d="M245.16 214.436C240.965 214.525 237.24 211.98 234.25 207.057C231.696 202.86 230.168 197.591 230.001 192.188C230.023 190.771 230.993 189.543 232.566 189.509L256.884 188.572C257.564 188.505 258.2 188.807 258.736 189.32C259.271 189.834 259.494 190.459 259.561 191.14C260.052 201.889 254.017 214.09 245.316 214.38L245.16 214.436ZM235.511 194.8C236.058 198.306 237.128 201.799 238.813 204.546C240.609 207.604 243.007 209.39 245.104 209.346C249.454 209.201 253.705 201.867 254.274 194.086L235.511 194.8Z" fill="#592641"/>
<path d="M221.027 187.29C221.016 179.365 216.42 172.901 210.965 172.912C205.511 172.923 200.982 179.476 200.993 187.401C201.004 195.327 205.599 201.79 211.054 201.779C216.509 201.768 221.038 195.216 221.027 187.29Z" fill="#592641"/>
<path d="M212.108 184.489C212.097 181.497 210.58 179.22 208.639 179.209C206.698 179.198 205.125 181.698 205.237 184.478C205.248 187.469 206.765 189.746 208.706 189.758C210.647 189.769 212.22 187.268 212.108 184.489Z" fill="white"/>
<path d="M208.777 190.436C206.468 190.38 204.684 187.846 204.773 184.642C204.74 183.068 205.13 181.695 205.788 180.579C206.446 179.463 207.428 178.76 208.633 178.682C210.942 178.737 212.726 181.271 212.637 184.475C212.671 186.049 212.28 187.422 211.622 188.538C210.964 189.654 209.982 190.358 208.777 190.436ZM208.499 179.787C207.818 179.854 207.093 180.289 206.536 181.193C205.978 182.097 205.532 183.314 205.665 184.676C205.721 187.299 207.026 189.476 208.599 189.442C209.335 189.532 210.005 188.94 210.618 188.192C211.176 187.288 211.622 186.071 211.488 184.709C211.433 182.086 210.127 179.91 208.555 179.943L208.499 179.787Z" fill="#592641"/>
<path d="M232.681 192.29C232.994 202.046 238.56 212.216 245.163 211.97C251.923 211.669 257.311 201.109 256.999 191.353L232.681 192.29Z" fill="#592641"/>
<path d="M235.39 203.833C237.654 201.79 240.822 200.306 244.336 200.284C248.318 200.094 251.865 201.646 254.275 203.956C252.167 208.41 248.775 211.737 245.105 211.815C241.123 212.004 237.743 208.454 235.334 203.677L235.39 203.833Z" fill="#ED2E7A"/>
<path d="M286.988 186.096C286.977 178.171 282.381 171.708 276.926 171.719C271.472 171.73 266.943 178.282 266.954 186.207C266.965 194.133 271.56 200.596 277.015 200.585C282.47 200.574 286.999 194.022 286.988 186.096Z" fill="#592641"/>
<path d="M278.073 183.295C278.062 180.303 276.545 178.026 274.604 178.015C272.663 178.003 271.09 180.504 271.202 183.283C271.213 186.275 272.73 188.552 274.671 188.563C276.612 188.574 278.184 186.074 278.073 183.295Z" fill="white"/>
<path d="M274.672 189.086C272.363 189.03 270.578 186.496 270.667 183.293C270.634 181.719 271.024 180.346 271.682 179.229C272.497 178.057 273.478 177.354 274.583 177.488C276.836 177.388 278.676 180.078 278.587 183.282C278.654 186.429 276.925 188.986 274.672 189.086ZM274.393 178.437C273.713 178.504 272.987 178.939 272.43 179.843C271.872 180.748 271.426 181.964 271.56 183.326C271.615 185.949 272.92 188.126 274.493 188.093C276.066 188.059 277.382 185.827 277.327 183.203C277.271 180.58 275.966 178.403 274.393 178.437Z" fill="#592641"/>
</g>
<defs>
<clipPath id="clip0_5700_68661">
<rect width="357" height="357" fill="white"/>
</clipPath>
</defs>
</svg>
