<svg width="167" height="37" viewBox="0 0 167 37" fill="none" xmlns="http://www.w3.org/2000/svg">
<path d="M43.1483 13.1321C40.2299 8.12001 33.4765 8.33556 32.052 8.38055C30.5694 8.42741 25.353 8.59423 22.4421 12.6391C21.9998 13.252 20.1666 15.8012 20.787 19.0963C21.653 23.7035 26.4983 25.4373 26.7251 25.5142C26.8206 25.9247 26.8919 26.4701 26.83 27.1018C26.6707 28.7006 25.7541 29.769 25.3736 30.1683C25.9378 30.0783 27.6772 29.7297 28.9499 28.202C29.4916 27.5516 29.7822 26.8881 29.9415 26.3989C36.5055 27.7185 42.3198 24.8394 43.9243 20.4515C45.2439 16.8452 43.2945 13.3776 43.1502 13.1321H43.1483ZM26.7382 18.5884C26.024 18.594 25.4411 18.0204 25.4355 17.3063C25.4299 16.5922 26.0034 16.0092 26.7176 16.0036C27.4317 15.998 28.0146 16.5734 28.0202 17.2857C28.0259 17.9998 27.4523 18.5828 26.7382 18.5884ZM32.4363 18.5453C31.7221 18.5509 31.1392 17.9773 31.1336 17.2632C31.128 16.5491 31.7034 15.9661 32.4157 15.9605C33.1279 15.9549 33.7127 16.5303 33.7183 17.2426C33.724 17.9548 33.1504 18.5397 32.4363 18.5453ZM38.1362 18.5022C37.4221 18.5078 36.8392 17.9342 36.8335 17.2201C36.8279 16.506 37.4034 15.923 38.1156 15.9174C38.8298 15.9118 39.4127 16.4872 39.4183 17.1995C39.4239 17.9117 38.8504 18.4965 38.1362 18.5022Z" fill="#001A4A"/>
<path d="M19.5348 10.8055C19.5348 12.3987 19.1412 13.8495 18.3559 15.1541C17.5705 16.4586 16.519 17.5514 15.2032 18.4286C15.8967 18.5673 16.4965 18.8035 17.0044 19.139C17.5124 19.4745 17.9341 19.8831 18.2696 20.3686C18.6033 20.854 18.8582 21.4032 19.0325 22.0143C19.205 22.6272 19.2931 23.2682 19.2931 23.9374C19.2931 25.2551 18.9857 26.4041 18.3746 27.3844C17.7617 28.3665 16.9707 29.1744 16.0017 29.8098C15.0307 30.4452 13.9511 30.9194 12.7627 31.2306C11.5725 31.5417 10.3898 31.6992 9.2108 31.6992C8.56415 31.6992 7.91749 31.6523 7.27083 31.5605C6.62417 31.4686 6.01125 31.3056 5.43394 31.075C5.22589 31.0057 5.05344 30.7226 4.91474 30.2259C4.77604 29.7292 4.66545 29.1238 4.58485 28.4078C4.50425 27.6918 4.44052 26.9176 4.39367 26.0854C4.34681 25.2532 4.31307 24.4566 4.29057 23.6937C4.26808 22.9308 4.25684 22.2617 4.25684 21.6844V18.0294C4.25684 17.2103 4.27933 16.3949 4.32619 15.5871C4.32619 15.379 4.33181 15.0566 4.34306 14.6161C4.3543 14.1775 4.36555 13.6864 4.3768 13.1429C4.38804 12.6012 4.41053 12.0295 4.44615 11.4278C4.47989 10.828 4.52675 10.2676 4.58485 9.74651C4.64296 9.22731 4.72355 8.78308 4.82665 8.41196C4.92974 8.04271 5.05157 7.81216 5.19027 7.71844C5.72072 7.37168 6.31115 7.04366 6.95781 6.73064C7.60447 6.4195 8.27362 6.14771 8.96714 5.91717C9.66065 5.68662 10.3523 5.50106 11.0458 5.36235C11.7393 5.22365 12.3972 5.1543 13.0214 5.1543C13.8761 5.1543 14.7027 5.27613 15.4993 5.51793C16.2959 5.75972 16.9895 6.12335 17.578 6.60881C18.1666 7.09427 18.6408 7.68845 18.9988 8.39321C19.3568 9.09798 19.5367 9.90021 19.5367 10.8018L19.5348 10.8055ZM13.7843 12.6424C13.7843 12.2507 13.6624 11.962 13.4206 11.7765C13.1789 11.5928 12.8602 11.499 12.4685 11.499C12.1442 11.499 11.8049 11.5684 11.4469 11.7071C11.0889 11.8458 10.7834 12.0314 10.5285 12.2619C10.4591 12.3313 10.3954 12.5281 10.3373 12.8505C10.2792 13.1747 10.2342 13.5384 10.1986 13.9414C10.1649 14.3462 10.1405 14.7267 10.1292 15.0847C10.118 15.4427 10.1124 15.6789 10.1124 15.7951V16.02C10.1124 16.1231 10.118 16.2337 10.1292 16.3499C10.1405 16.4661 10.1574 16.5692 10.1817 16.6611C10.2042 16.7529 10.2398 16.7998 10.2848 16.7998C10.6766 16.7998 11.0814 16.6554 11.4975 16.3668C11.9136 16.0781 12.2885 15.7201 12.624 15.2928C12.9596 14.8654 13.2351 14.41 13.4563 13.9245C13.6756 13.439 13.7861 13.0117 13.7861 12.6424H13.7843ZM13.6456 22.6553C13.6456 22.2636 13.5069 21.9862 13.2295 21.8231C12.9521 21.6619 12.6409 21.5813 12.2941 21.5813C11.9699 21.5813 11.6306 21.6563 11.2726 21.8062C10.9146 21.9562 10.6203 22.1361 10.3898 22.3442C10.3204 22.391 10.2679 22.5054 10.2342 22.6909C10.2005 22.8765 10.1761 23.0789 10.1649 23.2964C10.1536 23.5157 10.1424 23.7237 10.1311 23.9205C10.1199 24.1173 10.1143 24.2504 10.1143 24.3198V24.5972C10.1143 24.7359 10.1199 24.8802 10.1311 25.0301C10.1424 25.1801 10.1649 25.3188 10.2005 25.4463C10.2342 25.5737 10.2754 25.6374 10.3223 25.6374C10.6447 25.6374 11.0027 25.5456 11.3963 25.36C11.7881 25.1763 12.1536 24.9439 12.4872 24.6665C12.8208 24.3891 13.0983 24.0723 13.3194 23.7143C13.5387 23.3563 13.6493 23.004 13.6493 22.6572L13.6456 22.6553Z" fill="#001A4A"/>
<path d="M61.4611 10.8055C61.4611 12.3987 61.0675 13.8495 60.2821 15.1541C59.4968 16.4586 58.4453 17.5514 57.1294 18.4286C57.823 18.5673 58.4228 18.8035 58.9307 19.139C59.4387 19.4745 59.8604 19.8831 60.1959 20.3686C60.5296 20.854 60.7845 21.4032 60.9588 22.0143C61.1312 22.6272 61.2193 23.2682 61.2193 23.9374C61.2193 25.2551 60.9119 26.4041 60.3009 27.3844C59.688 28.3665 58.897 29.1744 57.9279 29.8098C56.957 30.4452 55.8774 30.9194 54.689 31.2306C53.4988 31.5417 52.3161 31.6992 51.1371 31.6992C50.4904 31.6992 49.8438 31.6523 49.1971 31.5605C48.5504 31.4686 47.9375 31.3056 47.3602 31.075C47.1522 31.0057 46.9797 30.7226 46.841 30.2259C46.7023 29.7292 46.5917 29.1238 46.5111 28.4078C46.4305 27.6918 46.3668 26.9176 46.3199 26.0854C46.2731 25.2532 46.2393 24.4566 46.2168 23.6937C46.1944 22.9308 46.1831 22.2617 46.1831 21.6844V18.0294C46.1831 17.2103 46.2056 16.3949 46.2525 15.5871C46.2525 15.379 46.2581 15.0566 46.2693 14.6161C46.2806 14.1775 46.2918 13.6864 46.3031 13.1429C46.3143 12.6012 46.3368 12.0295 46.3724 11.4278C46.4062 10.828 46.453 10.2676 46.5111 9.74651C46.5692 9.22731 46.6498 8.78308 46.7529 8.41196C46.856 8.04271 46.9778 7.81216 47.1165 7.71844C47.647 7.37168 48.2374 7.04366 48.8841 6.73064C49.5307 6.4195 50.1999 6.14771 50.8934 5.91717C51.5869 5.68662 52.2786 5.50106 52.9721 5.36235C53.6656 5.22365 54.3235 5.1543 54.9477 5.1543C55.8024 5.1543 56.629 5.27613 57.4256 5.51793C58.2222 5.75972 58.9157 6.12335 59.5043 6.60881C60.0928 7.09427 60.567 7.68845 60.925 8.39321C61.2831 9.09798 61.463 9.90021 61.463 10.8018L61.4611 10.8055ZM55.7105 12.6424C55.7105 12.2507 55.5887 11.962 55.3469 11.7765C55.1051 11.5928 54.7865 11.499 54.3947 11.499C54.0705 11.499 53.7312 11.5684 53.3732 11.7071C53.0152 11.8458 52.7097 12.0314 52.4548 12.2619C52.3854 12.3313 52.3217 12.5281 52.2636 12.8505C52.2055 13.1747 52.1605 13.5384 52.1249 13.9414C52.0911 14.3462 52.0668 14.7267 52.0555 15.0847C52.0443 15.4427 52.0386 15.6789 52.0386 15.7951V16.02C52.0386 16.1231 52.0443 16.2337 52.0555 16.3499C52.0668 16.4661 52.0836 16.5692 52.108 16.6611C52.1305 16.7529 52.1661 16.7998 52.2111 16.7998C52.6028 16.7998 53.0077 16.6554 53.4238 16.3668C53.8399 16.0781 54.2148 15.7201 54.5503 15.2928C54.8858 14.8654 55.1614 14.41 55.3825 13.9245C55.6018 13.439 55.7124 13.0117 55.7124 12.6424H55.7105ZM55.5718 22.6553C55.5718 22.2636 55.4331 21.9862 55.1557 21.8231C54.8783 21.6619 54.5672 21.5813 54.2204 21.5813C53.8962 21.5813 53.5569 21.6563 53.1989 21.8062C52.8409 21.9562 52.5466 22.1361 52.3161 22.3442C52.2467 22.391 52.1942 22.5054 52.1605 22.6909C52.1267 22.8765 52.1024 23.0789 52.0911 23.2964C52.0799 23.5157 52.0686 23.7237 52.0574 23.9205C52.0461 24.1173 52.0405 24.2504 52.0405 24.3198V24.5972C52.0405 24.7359 52.0461 24.8802 52.0574 25.0301C52.0686 25.1801 52.0911 25.3188 52.1267 25.4463C52.1605 25.5737 52.2017 25.6374 52.2486 25.6374C52.571 25.6374 52.929 25.5456 53.3226 25.36C53.7143 25.1763 54.0798 24.9439 54.4135 24.6665C54.7471 24.3891 55.0245 24.0723 55.2457 23.7143C55.465 23.3563 55.5756 23.004 55.5756 22.6572L55.5718 22.6553Z" fill="#001A4A"/>
<path d="M80.5177 26.1548C80.5177 26.6177 80.4765 27.1707 80.3959 27.8173C80.3153 28.464 80.1579 29.0825 79.9273 29.6711C79.6968 30.2597 79.3837 30.7564 78.992 31.1612C78.5984 31.5642 78.0792 31.7685 77.4325 31.7685C76.5778 31.7685 75.9368 31.4574 75.5094 30.8332C75.0821 30.209 74.7765 29.4649 74.591 28.599C74.4054 27.733 74.2967 26.8483 74.2611 25.9486C74.2255 25.047 74.1973 24.3329 74.1749 23.8006C72.5123 24.078 70.8703 24.3198 69.2546 24.5278C69.2078 25.0601 69.1103 25.718 68.9603 26.5034C68.8104 27.2888 68.5799 28.046 68.2668 28.7733C67.9557 29.5005 67.5508 30.1303 67.0541 30.6608C66.5574 31.1931 65.9501 31.4574 65.236 31.4574C64.6812 31.4574 64.2482 31.2549 63.937 30.8501C63.6259 30.4471 63.3878 29.9672 63.2266 29.4124C63.0654 28.8576 62.9661 28.2859 62.9324 27.6974C62.8968 27.1088 62.8799 26.6177 62.8799 26.2241C62.8799 24.9083 62.983 23.6075 63.191 22.3254C63.3991 21.0434 63.6409 19.7669 63.9183 18.4961C64.057 17.8269 64.2407 17.0416 64.4731 16.14C64.7036 15.2384 64.9867 14.3087 65.3222 13.3509C65.6558 12.3931 66.0494 11.4447 66.5012 10.5094C66.951 9.57407 67.4646 8.73622 68.0438 7.99772C68.6211 7.25922 69.279 6.65754 70.0194 6.19645C70.7579 5.73535 71.5788 5.50293 72.4804 5.50293C73.382 5.50293 74.1205 5.69974 74.7672 6.09148C75.4138 6.4851 75.9799 7.0043 76.4653 7.65096C76.9508 8.29762 77.3538 9.03237 77.6781 9.85148C78.0005 10.6725 78.2722 11.5028 78.4915 12.3463C78.7108 13.1897 78.8945 14.0163 79.0463 14.8242C79.1963 15.6339 79.3294 16.3481 79.4456 16.9722C79.7455 18.4736 80.0004 19.9918 80.2085 21.5288C80.4165 23.0658 80.5196 24.6065 80.5196 26.1548H80.5177ZM73.8318 17.7351C73.8318 17.4577 73.815 17.0022 73.7794 16.3668C73.7456 15.7314 73.6688 15.096 73.5544 14.4606C73.4382 13.8251 73.2602 13.2591 73.0165 12.7624C72.7747 12.2657 72.4448 12.0183 72.0287 12.0183C71.7981 12.0183 71.5789 12.1738 71.3708 12.4868C71.1627 12.798 70.9772 13.1916 70.816 13.6658C70.6548 14.14 70.5086 14.6649 70.383 15.2422C70.2555 15.8195 70.145 16.3743 70.0531 16.9047C69.9613 17.4371 69.8919 17.915 69.8451 18.3424C69.7982 18.7697 69.7645 19.0753 69.742 19.2608C71.1271 19.1446 72.4898 18.9722 73.83 18.7416V17.737L73.8318 17.7351Z" fill="#001A4A"/>
<path d="M97.4281 7.61718C97.4281 8.19448 97.2032 8.72118 96.7534 9.19352C96.3035 9.66774 95.7599 10.0839 95.1245 10.44C94.4891 10.798 93.8368 11.0923 93.1677 11.3228C92.4966 11.5534 91.9437 11.7164 91.5051 11.8083C91.3195 13.5871 91.1752 15.3602 91.0721 17.1277C90.969 18.8953 90.9166 20.6684 90.9166 22.4472C90.9166 23.3938 90.939 24.331 90.9859 25.2532C91.0328 26.1772 91.0553 27.1013 91.0553 28.0253C91.0553 28.4415 91.014 28.8969 90.9334 29.3936C90.8528 29.8904 90.7141 30.3589 90.5173 30.7975C90.3205 31.2362 90.0487 31.6054 89.7038 31.9072C89.3571 32.2071 88.9297 32.357 88.4218 32.357C87.8201 32.357 87.3421 32.1883 86.9841 31.8547C86.6261 31.5192 86.3487 31.1106 86.1519 30.6251C85.9551 30.1396 85.822 29.6261 85.7527 29.0825C85.6833 28.5408 85.6496 28.0497 85.6496 27.6092C85.6027 26.2241 85.569 24.8314 85.5465 23.4331C85.524 22.0349 85.5109 20.6328 85.5109 19.2233C85.5109 18.0443 85.5165 16.8897 85.5277 15.7576C85.539 14.6255 85.5446 13.4708 85.5446 12.2919C85.2203 12.3387 84.8923 12.3725 84.5568 12.395C84.2213 12.4174 83.8802 12.4287 83.5353 12.4287C83.2579 12.4287 82.8942 12.4006 82.4444 12.3425C81.9945 12.2844 81.5616 12.1813 81.1454 12.0313C80.7293 11.8814 80.3713 11.6733 80.0714 11.4072C79.7715 11.141 79.6216 10.8017 79.6216 10.3856C79.6216 9.69211 79.8934 9.08668 80.4351 8.56748C80.9786 8.04828 81.6703 7.59656 82.5137 7.21606C83.3572 6.83556 84.2925 6.5113 85.3197 6.24513C86.3468 5.97897 87.3646 5.77279 88.3693 5.62097C89.3739 5.47102 90.298 5.36043 91.1415 5.29108C91.9849 5.22173 92.6372 5.18799 93.0983 5.18799C93.5369 5.18799 94.0055 5.20486 94.5022 5.24047C94.9989 5.27421 95.4657 5.37355 95.9061 5.53475C96.3447 5.69594 96.7084 5.93961 96.997 6.262C97.2857 6.58627 97.43 7.03612 97.43 7.61343L97.4281 7.61718Z" fill="#001A4A"/>
<path d="M112.777 26.1548C112.777 26.6177 112.736 27.1707 112.656 27.8173C112.575 28.464 112.418 29.0825 112.187 29.6711C111.956 30.2597 111.643 30.7564 111.252 31.1612C110.858 31.5642 110.339 31.7685 109.692 31.7685C108.837 31.7685 108.196 31.4574 107.769 30.8332C107.342 30.209 107.036 29.4649 106.851 28.599C106.665 27.733 106.556 26.8483 106.521 25.9486C106.485 25.0489 106.457 24.3329 106.435 23.8006C104.772 24.078 103.13 24.3198 101.514 24.5278C101.467 25.0601 101.37 25.718 101.22 26.5034C101.07 27.2888 100.84 28.046 100.527 28.7733C100.215 29.5005 99.8105 30.1303 99.3138 30.6608C98.8171 31.1931 98.2098 31.4574 97.4938 31.4574C96.939 31.4574 96.506 31.2549 96.1948 30.8501C95.8837 30.4471 95.6457 29.9672 95.4845 29.4124C95.3233 28.8576 95.2239 28.2859 95.1902 27.6974C95.1564 27.1088 95.1377 26.6177 95.1377 26.2241C95.1377 24.9083 95.2408 23.6075 95.4488 22.3254C95.6569 21.0434 95.8987 19.7669 96.1761 18.4961C96.3148 17.8269 96.4985 17.0416 96.7309 16.14C96.9615 15.2384 97.2445 14.3087 97.58 13.3509C97.9136 12.3931 98.3073 11.4447 98.759 10.5094C99.2107 9.57407 99.7224 8.73622 100.302 7.99772C100.879 7.25922 101.537 6.65754 102.277 6.19645C103.016 5.73535 103.837 5.50293 104.736 5.50293C105.636 5.50293 106.376 5.69974 107.023 6.09148C107.67 6.4851 108.236 7.0043 108.721 7.65096C109.207 8.29762 109.61 9.03237 109.934 9.85148C110.256 10.6725 110.528 11.5028 110.747 12.3463C110.967 13.1897 111.15 14.0163 111.302 14.8242C111.452 15.6339 111.585 16.3481 111.702 16.9722C112.001 18.4736 112.256 19.9918 112.464 21.5288C112.672 23.0658 112.776 24.6065 112.776 26.1548H112.777ZM106.09 17.7351C106.09 17.4577 106.073 17.0022 106.037 16.3668C106.003 15.7314 105.927 15.096 105.812 14.4606C105.696 13.8251 105.518 13.2591 105.276 12.7624C105.034 12.2657 104.704 12.0183 104.288 12.0183C104.058 12.0183 103.839 12.1738 103.63 12.4868C103.422 12.798 103.237 13.1916 103.076 13.6658C102.914 14.14 102.77 14.6649 102.643 15.2422C102.515 15.8195 102.407 16.3743 102.313 16.9047C102.221 17.4371 102.152 17.915 102.105 18.3424C102.058 18.7697 102.024 19.0753 102.002 19.2608C103.387 19.1446 104.749 18.9722 106.09 18.7416V17.737V17.7351Z" fill="#001A4A"/>
<path d="M131.557 26.5019C131.557 27.0792 131.319 27.6228 130.847 28.1308C130.372 28.6387 129.761 29.1017 129.01 29.5159C128.258 29.932 127.422 30.2957 126.498 30.6068C125.574 30.9179 124.661 31.1841 123.761 31.4034C122.86 31.6227 122.011 31.7895 121.214 31.9057C120.418 32.022 119.788 32.0782 119.327 32.0782C118.866 32.0782 118.42 32.0369 117.923 31.9564C117.426 31.8758 117.016 31.6958 116.693 31.4184C116.508 31.2797 116.346 30.9686 116.208 30.4831C116.069 29.9976 115.936 29.4203 115.809 28.7512C115.681 28.082 115.57 27.3604 115.479 26.5863C115.387 25.8122 115.31 25.0568 115.254 24.3164C115.196 23.5779 115.151 22.8956 115.115 22.2715C115.079 21.6473 115.062 21.1618 115.062 20.817C115.062 20.2396 115.079 19.5405 115.115 18.7214C115.149 17.9023 115.201 17.0232 115.271 16.0879C115.34 15.1526 115.432 14.2004 115.548 13.2295C115.662 12.2586 115.795 11.342 115.947 10.4742C116.097 9.6082 116.283 8.82846 116.502 8.13494C116.721 7.44143 116.957 6.89973 117.212 6.50611C117.651 5.88195 118.206 5.5708 118.875 5.5708C119.336 5.5708 119.73 5.72637 120.054 6.03939C120.378 6.35054 120.637 6.7554 120.834 7.25211C121.031 7.74882 121.18 8.30364 121.284 8.91468C121.387 9.5276 121.462 10.133 121.508 10.7328C121.555 11.3345 121.578 11.8874 121.578 12.3954V13.6081C121.578 15.4094 121.537 17.1938 121.456 18.9613C121.375 20.7289 121.334 22.5133 121.334 24.3145V25.666C122.374 25.3436 123.505 25.0362 124.731 24.7475C125.954 24.4589 127.122 24.3145 128.23 24.3145C128.622 24.3145 129.021 24.337 129.426 24.3839C129.829 24.4307 130.189 24.5282 130.5 24.6782C130.811 24.8281 131.066 25.0474 131.263 25.3361C131.46 25.6247 131.557 26.0127 131.557 26.4963V26.5019Z" fill="#001A4A"/>
<path d="M149.817 29.7597C149.817 30.4064 149.655 30.9331 149.331 31.3361C149.007 31.7391 148.51 31.9434 147.841 31.9434C147.309 31.9434 146.819 31.7822 146.368 31.4579C145.918 31.1355 145.502 30.7363 145.121 30.2621C144.741 29.7897 144.405 29.2874 144.117 28.7551C143.828 28.2246 143.592 27.7617 143.406 27.3699C142.921 26.399 142.441 25.4299 141.969 24.459C141.494 23.4881 141.028 22.5078 140.565 21.5144L138.486 22.7964C138.508 23.4675 138.475 24.1366 138.383 24.8058C138.291 25.4768 138.222 26.146 138.175 26.8151C138.128 27.2781 138.053 27.7804 137.95 28.3221C137.847 28.8657 137.678 29.3736 137.448 29.846C137.217 30.3202 136.904 30.7175 136.512 31.0418C136.119 31.3642 135.635 31.5273 135.058 31.5273C134.525 31.5273 134.087 31.4167 133.74 31.1974C133.393 30.9781 133.11 30.6951 132.891 30.3483C132.672 30.0015 132.516 29.6098 132.422 29.1693C132.331 28.7307 132.284 28.2809 132.284 27.8179V27.5405C132.284 26.1778 132.359 24.8095 132.509 23.4337C132.659 22.0598 132.756 20.6784 132.803 19.2932C132.85 17.4695 132.906 15.6438 132.975 13.8182C133.045 11.9944 133.137 10.1688 133.253 8.34316C133.275 7.92705 133.345 7.52406 133.461 7.13044C133.577 6.73869 133.749 6.38631 133.98 6.07329C134.211 5.76215 134.494 5.51285 134.829 5.32917C135.163 5.14548 135.562 5.05176 136.025 5.05176C136.741 5.05176 137.277 5.30667 137.637 5.81463C137.995 6.32258 138.242 6.9355 138.381 7.65151C138.52 8.36752 138.583 9.10603 138.572 9.8689C138.561 10.6318 138.555 11.2672 138.555 11.7751C138.555 13.2296 138.52 14.686 138.452 16.1405C139.121 15.5857 139.774 14.9503 140.409 14.2343C141.045 13.5183 141.605 12.791 142.09 12.0507C142.39 11.6121 142.737 11.0066 143.131 10.2325C143.522 9.45841 143.95 8.70866 144.413 7.97953C144.874 7.25227 145.384 6.61686 145.937 6.07329C146.491 5.5316 147.08 5.25981 147.704 5.25981C148.373 5.25981 148.864 5.451 149.177 5.8315C149.49 6.21199 149.646 6.71433 149.646 7.33849C149.646 8.26256 149.502 9.20912 149.213 10.18C148.924 11.151 148.536 12.1031 148.053 13.0385C147.569 13.9738 147.018 14.8641 146.407 15.7057C145.794 16.5492 145.178 17.282 144.553 17.9062C145.2 18.9915 145.813 20.0842 146.39 21.1807C146.968 22.2791 147.545 23.3813 148.122 24.489C148.33 24.8583 148.533 25.2631 148.729 25.7017C148.926 26.1403 149.104 26.5921 149.266 27.0532C149.427 27.5161 149.56 27.9772 149.665 28.4383C149.768 28.9013 149.82 29.3399 149.82 29.7541L149.817 29.7597Z" fill="#001A4A"/>
<path d="M162.396 6.95968C162.396 7.492 162.227 7.9531 161.893 8.34484C161.558 8.73846 161.16 9.06085 160.698 9.31577C160.281 9.57068 159.854 9.84059 159.415 10.1292C158.977 10.4179 158.572 10.7422 158.203 11.1002C157.833 11.4582 157.532 11.8574 157.301 12.296C157.071 12.7346 156.954 13.2313 156.954 13.7861C156.954 14.2716 157.071 14.7102 157.301 15.102C157.532 15.4956 157.815 15.8817 158.15 16.2622C158.486 16.6427 158.855 17.0363 159.26 17.4412C159.663 17.846 160.034 18.2959 160.368 18.7926C160.703 19.2893 160.986 19.8497 161.217 20.4739C161.447 21.0981 161.563 21.8253 161.563 22.6576C161.563 23.2349 161.442 23.8871 161.2 24.6144C160.958 25.3417 160.628 26.0764 160.212 26.8149C159.796 27.5553 159.305 28.2694 158.739 28.9629C158.173 29.6565 157.573 30.275 156.938 30.8167C156.302 31.3584 155.639 31.7989 154.945 32.1325C154.252 32.468 153.582 32.6348 152.936 32.6348C152.22 32.6348 151.584 32.438 151.029 32.0463C150.475 31.6527 150.197 31.0641 150.197 30.2788C150.197 29.7483 150.325 29.2572 150.578 28.8055C150.831 28.3556 151.144 27.9227 151.513 27.5066C151.882 27.0904 152.293 26.6875 152.743 26.2938C153.193 25.9021 153.603 25.5085 153.972 25.1149C154.342 24.7231 154.653 24.3126 154.908 23.8853C155.161 23.4579 155.288 23.0024 155.288 22.517C155.288 21.8478 155.05 21.1599 154.578 20.4552C154.103 19.7504 153.579 19.0231 153.001 18.2715C152.424 17.5218 151.897 16.7533 151.425 15.9679C150.951 15.1826 150.715 14.3859 150.715 13.5781C150.715 12.5847 150.979 11.5406 151.511 10.4423C152.042 9.34576 152.724 8.34109 153.556 7.42827C154.388 6.51546 155.324 5.76008 156.362 5.15841C157.402 4.55861 158.43 4.25684 159.445 4.25684C160.253 4.25684 160.947 4.49863 161.524 4.98409C162.101 5.46956 162.39 6.12746 162.39 6.95968H162.396Z" fill="#001A4A"/>
</svg>
